<svg xmlns="http://www.w3.org/2000/svg" xmlns:xlink="http://www.w3.org/1999/xlink" width="920" zoomAndPan="magnify" viewBox="0 0 690 689.999997" height="920" preserveAspectRatio="xMidYMid meet" version="1.0"><defs><g/></defs><g fill="#ffffff" fill-opacity="1"><g transform="translate(282.463164, 648.615333)"><g><path d="M -29.03125 -7.921875 L -22.734375 -6.203125 L -22.359375 1.40625 L -10.78125 4.5625 L -6.609375 -1.796875 L -0.453125 -0.125 L -19.140625 27.28125 L -26.828125 25.171875 Z M -20.90625 20.015625 L -13.765625 9.140625 L -22.09375 6.859375 L -21.421875 19.875 Z M -20.90625 20.015625 "/></g></g></g><g fill="#ffffff" fill-opacity="1"><g transform="translate(254.068476, 640.567406)"><g/></g></g><g fill="#ffffff" fill-opacity="1"><g transform="translate(245.070387, 637.767823)"><g><path d="M -12.6875 -5.671875 C -10.675781 -4.859375 -8.988281 -3.878906 -7.625 -2.734375 C -6.257812 -1.597656 -5.222656 -0.414062 -4.515625 0.8125 C -3.804688 2.050781 -3.363281 3.269531 -3.1875 4.46875 L -7.921875 7.03125 L -8.421875 6.828125 C -8.753906 5.179688 -9.4375 3.695312 -10.46875 2.375 C -11.507812 1.050781 -12.925781 0.0234375 -14.71875 -0.703125 C -16.257812 -1.335938 -17.550781 -1.488281 -18.59375 -1.15625 C -19.644531 -0.820312 -20.40625 -0.0859375 -20.875 1.046875 C -21.144531 1.734375 -21.25 2.359375 -21.1875 2.921875 C -21.125 3.484375 -20.867188 4.046875 -20.421875 4.609375 C -19.984375 5.179688 -19.3125 5.789062 -18.40625 6.4375 L -15.046875 8.828125 C -12.671875 10.472656 -11.125 12.25 -10.40625 14.15625 C -9.695312 16.070312 -9.796875 18.140625 -10.703125 20.359375 C -11.378906 21.992188 -12.378906 23.265625 -13.703125 24.171875 C -15.035156 25.078125 -16.628906 25.554688 -18.484375 25.609375 C -20.335938 25.660156 -22.351562 25.238281 -24.53125 24.34375 C -26.769531 23.4375 -28.5625 22.359375 -29.90625 21.109375 C -31.257812 19.859375 -32.234375 18.398438 -32.828125 16.734375 L -28.40625 14 L -27.90625 14.21875 C -27.4375 15.40625 -26.757812 16.429688 -25.875 17.296875 C -25 18.160156 -23.878906 18.867188 -22.515625 19.421875 C -20.941406 20.066406 -19.628906 20.273438 -18.578125 20.046875 C -17.535156 19.828125 -16.816406 19.234375 -16.421875 18.265625 C -16.046875 17.347656 -16.03125 16.5 -16.375 15.71875 C -16.726562 14.9375 -17.554688 14.113281 -18.859375 13.25 L -22.34375 10.890625 C -24.90625 9.128906 -26.535156 7.273438 -27.234375 5.328125 C -27.929688 3.390625 -27.8125 1.28125 -26.875 -1 C -26.132812 -2.8125 -25.097656 -4.226562 -23.765625 -5.25 C -22.429688 -6.269531 -20.820312 -6.832031 -18.9375 -6.9375 C -17.0625 -7.039062 -14.976562 -6.617188 -12.6875 -5.671875 Z M -12.6875 -5.671875 "/></g></g></g><g fill="#ffffff" fill-opacity="1"><g transform="translate(221.251881, 627.910037)"><g><path d="M -17.140625 -2.171875 L -16.5625 -6.78125 C -15.757812 -6.976562 -14.851562 -6.992188 -13.84375 -6.828125 C -12.84375 -6.671875 -11.789062 -6.320312 -10.6875 -5.78125 C -8.382812 -4.644531 -6.945312 -3.15625 -6.375 -1.3125 C -5.800781 0.519531 -6.101562 2.628906 -7.28125 5.015625 L -12.25 15.09375 L -9.015625 16.6875 L -11.109375 20.90625 L -14.34375 19.3125 L -16.375 23.453125 L -22.140625 21.703125 L -19.671875 16.6875 L -25.703125 13.703125 L -23.609375 9.484375 L -17.578125 12.46875 L -12.796875 2.78125 C -12.273438 1.726562 -12.113281 0.847656 -12.3125 0.140625 C -12.507812 -0.554688 -13.023438 -1.109375 -13.859375 -1.515625 C -14.804688 -1.984375 -15.765625 -2.132812 -16.734375 -1.96875 Z M -17.140625 -2.171875 "/></g></g></g><g fill="#ffffff" fill-opacity="1"><g transform="translate(205.703363, 620.41521)"><g><path d="M -25.484375 -2.703125 L -12.34375 4.953125 C -11.445312 3.097656 -11.195312 1.507812 -11.59375 0.1875 C -12 -1.125 -12.945312 -2.21875 -14.4375 -3.09375 C -15.601562 -3.769531 -16.675781 -4.101562 -17.65625 -4.09375 C -18.644531 -4.082031 -19.625 -3.757812 -20.59375 -3.125 L -20.984375 -3.359375 L -23.109375 -7.53125 C -21.609375 -8.570312 -19.921875 -9.144531 -18.046875 -9.25 C -16.179688 -9.351562 -14.128906 -8.753906 -11.890625 -7.453125 C -9.773438 -6.222656 -8.179688 -4.753906 -7.109375 -3.046875 C -6.035156 -1.347656 -5.546875 0.535156 -5.640625 2.609375 C -5.742188 4.679688 -6.457031 6.859375 -7.78125 9.140625 C -9.132812 11.460938 -10.710938 13.160156 -12.515625 14.234375 C -14.316406 15.316406 -16.191406 15.816406 -18.140625 15.734375 C -20.097656 15.648438 -22.007812 15.066406 -23.875 13.984375 C -26.757812 12.304688 -28.523438 10.253906 -29.171875 7.828125 C -29.828125 5.398438 -29.289062 2.703125 -27.5625 -0.265625 C -26.9375 -1.328125 -26.414062 -2.132812 -26 -2.6875 Z M -22.984375 3.1875 C -23.847656 4.769531 -24.148438 6.113281 -23.890625 7.21875 C -23.628906 8.332031 -22.851562 9.265625 -21.5625 10.015625 C -18.96875 11.523438 -16.570312 10.921875 -14.375 8.203125 Z M -22.984375 3.1875 "/></g></g></g><g fill="#ffffff" fill-opacity="1"><g transform="translate(184.603222, 608.261466)"><g><path d="M 2.703125 -9.8125 L -16.375 17.421875 L -21.234375 14.015625 L -19.453125 11.484375 L -19.765625 11.15625 C -21.035156 11.726562 -22.328125 11.925781 -23.640625 11.75 C -24.953125 11.582031 -26.253906 11.046875 -27.546875 10.140625 C -29.097656 9.054688 -30.195312 7.734375 -30.84375 6.171875 C -31.488281 4.617188 -31.609375 2.859375 -31.203125 0.890625 C -30.804688 -1.066406 -29.828125 -3.160156 -28.265625 -5.390625 C -26.710938 -7.597656 -25.066406 -9.207031 -23.328125 -10.21875 C -21.585938 -11.238281 -19.847656 -11.695312 -18.109375 -11.59375 C -16.378906 -11.488281 -14.71875 -10.875 -13.125 -9.75 C -11.914062 -8.90625 -11.015625 -7.972656 -10.421875 -6.953125 C -9.828125 -5.929688 -9.519531 -4.78125 -9.5 -3.5 L -9.09375 -3.296875 L -2.15625 -13.21875 Z M -14.671875 -4.65625 C -16.117188 -5.675781 -17.546875 -5.972656 -18.953125 -5.546875 C -20.367188 -5.128906 -21.796875 -3.898438 -23.234375 -1.859375 C -24.671875 0.191406 -25.347656 1.957031 -25.265625 3.4375 C -25.179688 4.914062 -24.414062 6.164062 -22.96875 7.1875 C -21.613281 8.132812 -20.191406 8.394531 -18.703125 7.96875 C -17.210938 7.550781 -15.769531 6.34375 -14.375 4.34375 C -12.988281 2.363281 -12.351562 0.609375 -12.46875 -0.921875 C -12.582031 -2.460938 -13.316406 -3.707031 -14.671875 -4.65625 Z M -14.671875 -4.65625 "/></g></g></g><g fill="#ffffff" fill-opacity="1"><g transform="translate(162.359728, 592.377288)"><g/></g></g><g fill="#ffffff" fill-opacity="1"><g transform="translate(154.818192, 586.698781)"><g><path d="M -39.625 6.671875 L -36.15625 2.78125 L -29.390625 8.8125 L -12 -10.703125 L -7.390625 -6.59375 L -24.78125 12.921875 L -18.03125 18.9375 L -21.5 22.828125 Z M -39.625 6.671875 "/></g></g></g><g fill="#ffffff" fill-opacity="1"><g transform="translate(136.366728, 570.368798)"><g><path d="M -9.140625 -10.28125 C -7.535156 -8.59375 -6.476562 -6.785156 -5.96875 -4.859375 C -5.457031 -2.941406 -5.535156 -1.003906 -6.203125 0.953125 C -6.867188 2.910156 -8.144531 4.789062 -10.03125 6.59375 C -11.914062 8.382812 -13.859375 9.5625 -15.859375 10.125 C -17.859375 10.695312 -19.804688 10.675781 -21.703125 10.0625 C -23.597656 9.457031 -25.347656 8.3125 -26.953125 6.625 C -28.546875 4.945312 -29.597656 3.144531 -30.109375 1.21875 C -30.617188 -0.707031 -30.539062 -2.65625 -29.875 -4.625 C -29.207031 -6.59375 -27.929688 -8.472656 -26.046875 -10.265625 C -24.160156 -12.066406 -22.21875 -13.242188 -20.21875 -13.796875 C -18.21875 -14.359375 -16.269531 -14.332031 -14.375 -13.71875 C -12.476562 -13.101562 -10.734375 -11.957031 -9.140625 -10.28125 Z M -12.796875 -6.8125 C -15.328125 -9.476562 -18.335938 -9.148438 -21.828125 -5.828125 C -23.640625 -4.109375 -24.644531 -2.503906 -24.84375 -1.015625 C -25.039062 0.472656 -24.523438 1.863281 -23.296875 3.15625 C -20.765625 5.820312 -17.742188 5.492188 -14.234375 2.171875 C -10.742188 -1.148438 -10.265625 -4.144531 -12.796875 -6.8125 Z M -12.796875 -6.8125 "/></g></g></g><g fill="#ffffff" fill-opacity="1"><g transform="translate(118.331776, 551.732445)"><g><path d="M -7.8125 -10.015625 L -3.984375 -5.109375 L -19.171875 13.890625 L -22.5625 9.53125 L -12.09375 -3.046875 L -12.375 -3.390625 L -27.75 2.90625 L -30.90625 -1.15625 L -21.171875 -14.671875 L -21.453125 -15.015625 L -36.109375 -7.8125 L -39.40625 -12.03125 L -17.359375 -22.234375 L -13.515625 -17.3125 L -23.46875 -3.859375 L -23.1875 -3.5 Z M -7.8125 -10.015625 "/></g></g></g><g fill="#ffffff" fill-opacity="1"><g transform="translate(98.08914, 525.564055)"><g><path d="M -4.609375 -8.015625 C -3.785156 -6.742188 -3.304688 -5.484375 -3.171875 -4.234375 C -3.046875 -2.992188 -3.269531 -1.828125 -3.84375 -0.734375 C -4.425781 0.347656 -5.359375 1.300781 -6.640625 2.125 C -7.816406 2.875 -8.96875 3.253906 -10.09375 3.265625 C -11.226562 3.273438 -12.390625 2.914062 -13.578125 2.1875 C -14.765625 1.457031 -16.039062 0.328125 -17.40625 -1.203125 C -18.375 -2.273438 -19.164062 -3.046875 -19.78125 -3.515625 C -20.40625 -3.992188 -20.929688 -4.25 -21.359375 -4.28125 C -21.796875 -4.320312 -22.238281 -4.195312 -22.6875 -3.90625 C -23.320312 -3.5 -23.664062 -2.960938 -23.71875 -2.296875 C -23.769531 -1.628906 -23.460938 -0.773438 -22.796875 0.265625 C -22.085938 1.367188 -21.164062 2.257812 -20.03125 2.9375 C -18.894531 3.613281 -17.6875 4.0625 -16.40625 4.28125 L -16.1875 4.640625 L -18 8.765625 C -19.757812 8.472656 -21.421875 7.800781 -22.984375 6.75 C -24.546875 5.695312 -25.878906 4.3125 -26.984375 2.59375 C -28.679688 -0.0507812 -29.34375 -2.320312 -28.96875 -4.21875 C -28.601562 -6.113281 -27.394531 -7.71875 -25.34375 -9.03125 L -16.6875 -14.59375 C -15.800781 -15.15625 -15.609375 -15.828125 -16.109375 -16.609375 C -16.296875 -16.910156 -16.539062 -17.175781 -16.84375 -17.40625 L -16.9375 -17.6875 L -13.671875 -20.296875 C -13.328125 -20.140625 -12.9375 -19.847656 -12.5 -19.421875 C -12.070312 -19.003906 -11.671875 -18.503906 -11.296875 -17.921875 C -10.523438 -16.722656 -10.148438 -15.640625 -10.171875 -14.671875 C -10.203125 -13.710938 -10.617188 -12.773438 -11.421875 -11.859375 L -11.203125 -11.46875 C -8.515625 -11.820312 -6.316406 -10.671875 -4.609375 -8.015625 Z M -9.359375 -7.1875 C -10.097656 -8.351562 -11.078125 -9.035156 -12.296875 -9.234375 C -13.515625 -9.429688 -14.816406 -9.082031 -16.203125 -8.1875 L -18.21875 -6.890625 L -18.0625 -6.515625 C -17.644531 -6.347656 -17.195312 -6.070312 -16.71875 -5.6875 C -16.25 -5.3125 -15.632812 -4.71875 -14.875 -3.90625 C -14 -2.9375 -13.191406 -2.351562 -12.453125 -2.15625 C -11.710938 -1.96875 -10.9375 -2.132812 -10.125 -2.65625 C -9.269531 -3.195312 -8.78125 -3.863281 -8.65625 -4.65625 C -8.539062 -5.445312 -8.773438 -6.289062 -9.359375 -7.1875 Z M -9.359375 -7.1875 "/></g></g></g><g fill="#ffffff" fill-opacity="1"><g transform="translate(85.283923, 505.468231)"><g><path d="M -1.640625 -2.984375 L -22.375 8.40625 L -25.15625 3.359375 L -22.078125 1.671875 L -22.203125 1.21875 C -23.640625 1.351562 -24.851562 1.160156 -25.84375 0.640625 C -26.832031 0.117188 -27.644531 -0.71875 -28.28125 -1.875 C -28.925781 -3.050781 -29.21875 -4.0625 -29.15625 -4.90625 L -24.171875 -6.484375 L -23.875 -6.125 C -23.820312 -5.71875 -23.742188 -5.335938 -23.640625 -4.984375 C -23.535156 -4.640625 -23.359375 -4.242188 -23.109375 -3.796875 C -22.304688 -2.335938 -21.179688 -1.503906 -19.734375 -1.296875 C -18.296875 -1.097656 -16.445312 -1.617188 -14.1875 -2.859375 L -4.5 -8.1875 Z M -1.640625 -2.984375 "/></g></g></g><g fill="#ffffff" fill-opacity="1"><g transform="translate(76.721472, 490.356031)"><g><path d="M -4.46875 -10.8125 C -3.6875 -9.101562 -3.40625 -7.40625 -3.625 -5.71875 C -3.851562 -4.039062 -4.632812 -2.453125 -5.96875 -0.953125 C -7.300781 0.546875 -9.1875 1.859375 -11.625 2.984375 C -14.09375 4.109375 -16.332031 4.675781 -18.34375 4.6875 C -20.351562 4.695312 -22.082031 4.21875 -23.53125 3.25 C -24.976562 2.28125 -26.109375 0.914062 -26.921875 -0.84375 C -27.535156 -2.1875 -27.832031 -3.457031 -27.8125 -4.65625 C -27.800781 -5.851562 -27.457031 -7.007812 -26.78125 -8.125 L -27.078125 -8.484375 L -38.0625 -3.453125 L -40.53125 -8.859375 L -10.390625 -22.671875 L -7.921875 -17.265625 L -10.703125 -15.984375 L -10.59375 -15.546875 C -9.300781 -15.410156 -8.125 -14.957031 -7.0625 -14.1875 C -6.007812 -13.425781 -5.144531 -12.300781 -4.46875 -10.8125 Z M -9.84375 -10.484375 C -10.539062 -11.992188 -11.632812 -12.941406 -13.125 -13.328125 C -14.613281 -13.710938 -16.460938 -13.398438 -18.671875 -12.390625 C -20.890625 -11.378906 -22.335938 -10.179688 -23.015625 -8.796875 C -23.703125 -7.410156 -23.695312 -5.960938 -23 -4.453125 C -22.269531 -2.859375 -21.179688 -1.882812 -19.734375 -1.53125 C -18.296875 -1.175781 -16.441406 -1.519531 -14.171875 -2.5625 C -11.910156 -3.601562 -10.441406 -4.785156 -9.765625 -6.109375 C -9.085938 -7.429688 -9.113281 -8.890625 -9.84375 -10.484375 Z M -9.84375 -10.484375 "/></g></g></g><g fill="#ffffff" fill-opacity="1"><g transform="translate(65.513716, 465.711865)"><g><path d="M -3.390625 -10.546875 C -2.828125 -9.023438 -2.492188 -7.566406 -2.390625 -6.171875 C -2.285156 -4.785156 -2.378906 -3.53125 -2.671875 -2.40625 C -2.972656 -1.289062 -3.445312 -0.375 -4.09375 0.34375 L -8.578125 -1.515625 L -8.734375 -1.9375 C -8.003906 -3.03125 -7.578125 -4.171875 -7.453125 -5.359375 C -7.328125 -6.554688 -7.484375 -7.742188 -7.921875 -8.921875 C -8.316406 -10.015625 -8.804688 -10.765625 -9.390625 -11.171875 C -9.984375 -11.585938 -10.644531 -11.660156 -11.375 -11.390625 C -11.9375 -11.179688 -12.332031 -10.804688 -12.5625 -10.265625 C -12.800781 -9.734375 -12.867188 -8.984375 -12.765625 -8.015625 L -12.390625 -4.828125 C -12.109375 -2.429688 -12.320312 -0.53125 -13.03125 0.875 C -13.738281 2.289062 -14.925781 3.304688 -16.59375 3.921875 C -17.96875 4.429688 -19.296875 4.519531 -20.578125 4.1875 C -21.859375 3.851562 -23.003906 3.140625 -24.015625 2.046875 C -25.023438 0.960938 -25.84375 -0.425781 -26.46875 -2.125 C -27.195312 -4.125 -27.515625 -5.882812 -27.421875 -7.40625 C -27.328125 -8.9375 -26.929688 -10.25 -26.234375 -11.34375 L -21.90625 -9.546875 L -21.75 -9.140625 C -22.238281 -8.265625 -22.5 -7.382812 -22.53125 -6.5 C -22.570312 -5.613281 -22.421875 -4.691406 -22.078125 -3.734375 C -21.265625 -1.535156 -20.171875 -0.6875 -18.796875 -1.1875 C -18.222656 -1.394531 -17.828125 -1.769531 -17.609375 -2.3125 C -17.398438 -2.863281 -17.375 -3.695312 -17.53125 -4.8125 L -17.9375 -7.765625 C -18.269531 -10.203125 -18.09375 -12.132812 -17.40625 -13.5625 C -16.726562 -14.988281 -15.488281 -16.035156 -13.6875 -16.703125 C -12.28125 -17.210938 -10.910156 -17.316406 -9.578125 -17.015625 C -8.253906 -16.722656 -7.054688 -16.023438 -5.984375 -14.921875 C -4.921875 -13.816406 -4.054688 -12.359375 -3.390625 -10.546875 Z M -3.390625 -10.546875 "/></g></g></g><g fill="#ffffff" fill-opacity="1"><g transform="translate(58.400564, 445.969825)"><g/></g></g><g fill="#ffffff" fill-opacity="1"><g transform="translate(55.362136, 437.031151)"><g><path d="M -36.515625 -16.78125 L -31.453125 -18.046875 L -29.265625 -9.25 L -3.90625 -15.59375 L -2.40625 -9.609375 L -27.765625 -3.265625 L -25.5625 5.515625 L -30.625 6.78125 Z M -36.515625 -16.78125 "/></g></g></g><g fill="#ffffff" fill-opacity="1"><g transform="translate(49.292972, 413.153614)"><g><path d="M -0.546875 -3.359375 L -33.265625 1.96875 L -34.21875 -3.890625 L -21.796875 -5.90625 L -21.796875 -6.375 C -23.054688 -6.96875 -24.085938 -7.773438 -24.890625 -8.796875 C -25.703125 -9.828125 -26.238281 -11.140625 -26.5 -12.734375 C -27.34375 -17.878906 -24.84375 -20.925781 -19 -21.875 L -3.96875 -24.328125 L -3.015625 -18.46875 L -17.296875 -16.140625 C -18.898438 -15.878906 -20.007812 -15.375 -20.625 -14.625 C -21.238281 -13.875 -21.4375 -12.828125 -21.21875 -11.484375 C -20.945312 -9.847656 -20.1875 -8.640625 -18.9375 -7.859375 C -17.6875 -7.078125 -15.90625 -6.875 -13.59375 -7.25 L -1.5 -9.21875 Z M -0.546875 -3.359375 "/></g></g></g><g fill="#ffffff" fill-opacity="1"><g transform="translate(45.041194, 387.147051)"><g><path d="M -12.28125 -22.46875 L -11.09375 -7.3125 C -9.0625 -7.644531 -7.613281 -8.347656 -6.75 -9.421875 C -5.894531 -10.503906 -5.535156 -11.90625 -5.671875 -13.625 C -5.785156 -14.976562 -6.125 -16.050781 -6.6875 -16.84375 C -7.257812 -17.644531 -8.078125 -18.265625 -9.140625 -18.703125 L -9.171875 -19.15625 L -6.96875 -23.28125 C -5.25 -22.65625 -3.816406 -21.597656 -2.671875 -20.109375 C -1.523438 -18.628906 -0.847656 -16.597656 -0.640625 -14.015625 C -0.453125 -11.578125 -0.753906 -9.429688 -1.546875 -7.578125 C -2.335938 -5.734375 -3.609375 -4.257812 -5.359375 -3.15625 C -7.109375 -2.0625 -9.304688 -1.410156 -11.953125 -1.203125 C -14.628906 -0.992188 -16.925781 -1.320312 -18.84375 -2.1875 C -20.757812 -3.050781 -22.238281 -4.304688 -23.28125 -5.953125 C -24.320312 -7.609375 -24.925781 -9.507812 -25.09375 -11.65625 C -25.351562 -14.988281 -24.664062 -17.613281 -23.03125 -19.53125 C -21.40625 -21.445312 -18.882812 -22.539062 -15.46875 -22.8125 C -14.238281 -22.90625 -13.273438 -22.9375 -12.578125 -22.90625 Z M -15.71875 -17.078125 C -17.507812 -16.890625 -18.78125 -16.375 -19.53125 -15.53125 C -20.289062 -14.6875 -20.613281 -13.515625 -20.5 -12.015625 C -20.269531 -9.023438 -18.414062 -7.398438 -14.9375 -7.140625 Z M -15.71875 -17.078125 "/></g></g></g><g fill="#ffffff" fill-opacity="1"><g transform="translate(43.288329, 362.422632)"><g/></g></g><g fill="#ffffff" fill-opacity="1"><g transform="translate(42.8449, 352.975662)"><g><path d="M -30.546875 -24.984375 L -25.359375 -24.8125 L -25.8125 -11.140625 L -17.5 -10.859375 L -17.09375 -23.265625 L -11.984375 -23.09375 L -12.390625 -10.6875 L 0.34375 -10.265625 L 0.140625 -4.078125 L -31.203125 -5.125 Z M -30.546875 -24.984375 "/></g></g></g><g fill="#ffffff" fill-opacity="1"><g transform="translate(43.547424, 328.970677)"><g><path d="M 1.703125 -10.703125 C 1.390625 -8.066406 0.441406 -6.203125 -1.140625 -5.109375 C -2.734375 -4.023438 -4.882812 -3.640625 -7.59375 -3.953125 L -23.15625 -5.75 L -22.46875 -11.640625 L -7.640625 -9.921875 C -6.203125 -9.753906 -5.113281 -9.941406 -4.375 -10.484375 C -3.644531 -11.035156 -3.207031 -11.957031 -3.0625 -13.25 C -2.875 -14.882812 -3.265625 -16.210938 -4.234375 -17.234375 C -5.203125 -18.265625 -6.832031 -18.914062 -9.125 -19.1875 L -21.421875 -20.609375 L -20.75 -26.515625 L 2.75 -23.796875 L 2.09375 -18.125 L -1.359375 -18.53125 L -1.5 -18.078125 C -0.238281 -17.171875 0.65625 -16.132812 1.1875 -14.96875 C 1.71875 -13.8125 1.890625 -12.390625 1.703125 -10.703125 Z M 1.703125 -10.703125 "/></g></g></g><g fill="#ffffff" fill-opacity="1"><g transform="translate(46.675653, 302.960288)"><g><path d="M -2.515625 -17.09375 L 2.078125 -17.78125 C 2.492188 -17.050781 2.753906 -16.179688 2.859375 -15.171875 C 2.972656 -14.160156 2.914062 -13.054688 2.6875 -11.859375 C 2.207031 -9.335938 1.160156 -7.550781 -0.453125 -6.5 C -2.066406 -5.445312 -4.175781 -5.171875 -6.78125 -5.671875 L -17.828125 -7.75 L -18.5 -4.203125 L -23.140625 -5.078125 L -22.46875 -8.625 L -27 -9.46875 L -26.84375 -15.5 L -21.359375 -14.46875 L -20.125 -21.0625 L -15.484375 -20.1875 L -16.71875 -13.59375 L -6.109375 -11.59375 C -4.953125 -11.375 -4.066406 -11.453125 -3.453125 -11.828125 C -2.835938 -12.203125 -2.445312 -12.847656 -2.28125 -13.765625 C -2.082031 -14.804688 -2.191406 -15.765625 -2.609375 -16.640625 Z M -2.515625 -17.09375 "/></g></g></g><g fill="#ffffff" fill-opacity="1"><g transform="translate(49.672265, 286.000461)"><g><path d="M 3.203125 -10.359375 C 2.523438 -7.796875 1.320312 -6.085938 -0.40625 -5.234375 C -2.132812 -4.378906 -4.3125 -4.296875 -6.9375 -4.984375 L -22.09375 -8.984375 L -20.59375 -14.71875 L -6.171875 -10.90625 C -4.765625 -10.539062 -3.65625 -10.570312 -2.84375 -11 C -2.039062 -11.4375 -1.472656 -12.28125 -1.140625 -13.53125 C -0.722656 -15.125 -0.921875 -16.5 -1.734375 -17.65625 C -2.546875 -18.820312 -4.070312 -19.703125 -6.3125 -20.296875 L -18.28125 -23.453125 L -16.765625 -29.1875 L 6.109375 -23.15625 L 4.65625 -17.640625 L 1.296875 -18.53125 L 1.078125 -18.109375 C 2.191406 -17.035156 2.929688 -15.882812 3.296875 -14.65625 C 3.660156 -13.4375 3.628906 -12.003906 3.203125 -10.359375 Z M 3.203125 -10.359375 "/></g></g></g><g fill="#ffffff" fill-opacity="1"><g transform="translate(56.456106, 260.702527)"><g><path d="M 1.09375 -3.21875 L -21.296875 -10.859375 L -19.421875 -16.328125 L -16.09375 -15.1875 L -15.859375 -15.59375 C -16.921875 -16.5625 -17.59375 -17.582031 -17.875 -18.65625 C -18.15625 -19.738281 -18.082031 -20.910156 -17.65625 -22.171875 C -17.226562 -23.441406 -16.679688 -24.332031 -16.015625 -24.84375 L -11.5 -22.25 L -11.546875 -21.78125 C -11.816406 -21.457031 -12.046875 -21.140625 -12.234375 -20.828125 C -12.421875 -20.523438 -12.597656 -20.125 -12.765625 -19.625 C -13.304688 -18.0625 -13.164062 -16.675781 -12.34375 -15.46875 C -11.519531 -14.269531 -9.890625 -13.253906 -7.453125 -12.421875 L 3.015625 -8.84375 Z M 1.09375 -3.21875 "/></g></g></g><g fill="#ffffff" fill-opacity="1"><g transform="translate(61.934558, 244.154611)"><g><path d="M -0.609375 -25.609375 L -6.5 -11.59375 C -4.539062 -10.957031 -2.929688 -10.921875 -1.671875 -11.484375 C -0.421875 -12.046875 0.535156 -13.125 1.203125 -14.71875 C 1.722656 -15.96875 1.914062 -17.078125 1.78125 -18.046875 C 1.644531 -19.015625 1.195312 -19.9375 0.4375 -20.8125 L 0.609375 -21.234375 L 4.484375 -23.890625 C 5.710938 -22.535156 6.5 -20.9375 6.84375 -19.09375 C 7.1875 -17.257812 6.859375 -15.148438 5.859375 -12.765625 C 4.910156 -10.503906 3.660156 -8.734375 2.109375 -7.453125 C 0.554688 -6.171875 -1.25 -5.441406 -3.3125 -5.265625 C -5.375 -5.085938 -7.625 -5.507812 -10.0625 -6.53125 C -12.539062 -7.570312 -14.429688 -8.914062 -15.734375 -10.5625 C -17.046875 -12.21875 -17.785156 -14.019531 -17.953125 -15.96875 C -18.117188 -17.914062 -17.785156 -19.882812 -16.953125 -21.875 C -15.660156 -24.957031 -13.847656 -26.972656 -11.515625 -27.921875 C -9.191406 -28.878906 -6.453125 -28.691406 -3.296875 -27.359375 C -2.148438 -26.878906 -1.273438 -26.472656 -0.671875 -26.140625 Z M -6.125 -22.390625 C -7.8125 -23.035156 -9.1875 -23.160156 -10.25 -22.765625 C -11.3125 -22.367188 -12.132812 -21.476562 -12.71875 -20.09375 C -13.875 -17.332031 -12.960938 -15.035156 -9.984375 -13.203125 Z M -6.125 -22.390625 "/></g></g></g><g fill="#ffffff" fill-opacity="1"><g transform="translate(71.712875, 221.378494)"><g/></g></g><g fill="#ffffff" fill-opacity="1"><g transform="translate(76.015426, 212.542356)"><g/></g></g><g fill="#ffffff" fill-opacity="1"><g transform="translate(80.564751, 203.880608)"><g><path d="M 3.171875 -5.15625 C 2.785156 -4.488281 2.316406 -3.976562 1.765625 -3.625 C 1.210938 -3.28125 0.625 -3.109375 0 -3.109375 C -0.613281 -3.117188 -1.21875 -3.296875 -1.8125 -3.640625 C -2.40625 -3.984375 -2.863281 -4.421875 -3.1875 -4.953125 C -3.507812 -5.492188 -3.660156 -6.09375 -3.640625 -6.75 C -3.628906 -7.40625 -3.429688 -8.066406 -3.046875 -8.734375 C -2.660156 -9.398438 -2.1875 -9.90625 -1.625 -10.25 C -1.070312 -10.59375 -0.488281 -10.757812 0.125 -10.75 C 0.75 -10.75 1.359375 -10.582031 1.953125 -10.25 C 2.859375 -9.726562 3.429688 -9 3.671875 -8.0625 C 3.910156 -7.125 3.742188 -6.15625 3.171875 -5.15625 Z M 3.171875 -5.15625 "/></g></g></g><g fill="#ffffff" fill-opacity="1"><g transform="translate(86.316035, 193.874551)"><g/></g></g><g fill="#ffffff" fill-opacity="1"><g transform="translate(91.49728, 185.52326)"><g/></g></g><g fill="#ffffff" fill-opacity="1"><g transform="translate(96.009869, 177.599424)"><g><path d="M 6.046875 -7.671875 L 2.53125 -3.203125 L -22.09375 -22.609375 L -17.078125 -28.984375 L 5.9375 -20.9375 L 6.21875 -21.296875 L -7.015625 -41.75 L -2.109375 -47.96875 L 22.515625 -28.5625 L 18.875 -23.953125 L 2.609375 -36.78125 L 2.21875 -36.40625 L 14.0625 -17.84375 L 10.859375 -13.78125 L -9.953125 -20.96875 L -10.21875 -20.5 Z M 6.046875 -7.671875 "/></g></g></g><g fill="#ffffff" fill-opacity="1"><g transform="translate(120.26999, 147.316993)"><g><path d="M 6.734375 -6.3125 C 5.691406 -5.226562 4.582031 -4.476562 3.40625 -4.0625 C 2.226562 -3.644531 1.039062 -3.59375 -0.15625 -3.90625 C -1.351562 -4.226562 -2.5 -4.921875 -3.59375 -5.984375 C -4.59375 -6.953125 -5.222656 -7.984375 -5.484375 -9.078125 C -5.742188 -10.171875 -5.65625 -11.378906 -5.21875 -12.703125 C -4.789062 -14.035156 -3.988281 -15.539062 -2.8125 -17.21875 C -1.988281 -18.40625 -1.414062 -19.351562 -1.09375 -20.0625 C -0.78125 -20.78125 -0.65625 -21.351562 -0.71875 -21.78125 C -0.789062 -22.207031 -1.019531 -22.601562 -1.40625 -22.96875 C -1.945312 -23.5 -2.546875 -23.710938 -3.203125 -23.609375 C -3.867188 -23.503906 -4.628906 -23.007812 -5.484375 -22.125 C -6.390625 -21.1875 -7.046875 -20.085938 -7.453125 -18.828125 C -7.859375 -17.566406 -8.015625 -16.285156 -7.921875 -14.984375 L -8.21875 -14.6875 L -12.65625 -15.515625 C -12.78125 -17.296875 -12.507812 -19.066406 -11.84375 -20.828125 C -11.175781 -22.585938 -10.128906 -24.203125 -8.703125 -25.671875 C -6.523438 -27.921875 -4.46875 -29.082031 -2.53125 -29.15625 C -0.601562 -29.238281 1.234375 -28.429688 2.984375 -26.734375 L 10.375 -19.59375 C 11.132812 -18.851562 11.835938 -18.816406 12.484375 -19.484375 C 12.734375 -19.742188 12.929688 -20.039062 13.078125 -20.375 L 13.34375 -20.546875 L 16.609375 -17.96875 C 16.546875 -17.582031 16.359375 -17.128906 16.046875 -16.609375 C 15.734375 -16.097656 15.332031 -15.585938 14.84375 -15.078125 C 13.863281 -14.066406 12.898438 -13.460938 11.953125 -13.265625 C 11.003906 -13.078125 10 -13.269531 8.9375 -13.84375 L 8.59375 -13.53125 C 9.5625 -10.988281 8.941406 -8.582031 6.734375 -6.3125 Z M 4.875 -10.75 C 5.820312 -11.738281 6.25 -12.847656 6.15625 -14.078125 C 6.070312 -15.304688 5.4375 -16.492188 4.25 -17.640625 L 2.515625 -19.328125 L 2.1875 -19.078125 C 2.132812 -18.617188 1.976562 -18.113281 1.71875 -17.5625 C 1.457031 -17.019531 1.015625 -16.296875 0.390625 -15.390625 C -0.347656 -14.304688 -0.722656 -13.378906 -0.734375 -12.609375 C -0.753906 -11.847656 -0.421875 -11.132812 0.265625 -10.46875 C 0.992188 -9.757812 1.753906 -9.4375 2.546875 -9.5 C 3.347656 -9.5625 4.125 -9.976562 4.875 -10.75 Z M 4.875 -10.75 "/></g></g></g><g fill="#ffffff" fill-opacity="1"><g transform="translate(136.741976, 130.271489)"><g><path d="M 2.546875 -2.265625 L -19.453125 -27.0625 L -15.015625 -31 L -2.8125 -17.234375 L -2.375 -17.609375 L -3.15625 -28.8125 L 1.34375 -32.8125 L 1.671875 -32.4375 L 2.546875 -19.359375 L 17.375 -16.125 L 17.734375 -15.734375 L 13.046875 -11.578125 L 0.8125 -14.03125 L 0.375 -13.65625 L 6.984375 -6.203125 Z M 2.546875 -2.265625 "/></g></g></g><g fill="#ffffff" fill-opacity="1"><g transform="translate(153.503648, 115.279687)"><g><path d="M 12.296875 -22.484375 L 0.1875 -13.296875 C 1.550781 -11.765625 2.914062 -10.925781 4.28125 -10.78125 C 5.644531 -10.632812 7.015625 -11.085938 8.390625 -12.140625 C 9.472656 -12.953125 10.195312 -13.816406 10.5625 -14.734375 C 10.9375 -15.648438 11.015625 -16.671875 10.796875 -17.796875 L 11.15625 -18.0625 L 15.84375 -18.4375 C 16.226562 -16.65625 16.109375 -14.878906 15.484375 -13.109375 C 14.867188 -11.347656 13.523438 -9.6875 11.453125 -8.125 C 9.503906 -6.644531 7.535156 -5.738281 5.546875 -5.40625 C 3.566406 -5.070312 1.640625 -5.34375 -0.234375 -6.21875 C -2.109375 -7.09375 -3.847656 -8.582031 -5.453125 -10.6875 C -7.078125 -12.832031 -8.039062 -14.945312 -8.34375 -17.03125 C -8.644531 -19.113281 -8.378906 -21.039062 -7.546875 -22.8125 C -6.722656 -24.582031 -5.453125 -26.117188 -3.734375 -27.421875 C -1.066406 -29.441406 1.507812 -30.28125 4 -29.9375 C 6.488281 -29.601562 8.765625 -28.070312 10.828125 -25.34375 C 11.578125 -24.351562 12.128906 -23.5625 12.484375 -22.96875 Z M 5.890625 -22.453125 C 4.753906 -23.847656 3.628906 -24.640625 2.515625 -24.828125 C 1.398438 -25.015625 0.242188 -24.65625 -0.953125 -23.75 C -3.335938 -21.9375 -3.703125 -19.5 -2.046875 -16.4375 Z M 5.890625 -22.453125 "/></g></g></g><g fill="#ffffff" fill-opacity="1"><g transform="translate(173.36612, 100.452451)"><g/></g></g><g fill="#ffffff" fill-opacity="1"><g transform="translate(181.057381, 94.974669)"><g><path d="M 5.59375 -39.796875 L 8.25 -35.3125 L 0.46875 -30.6875 L 13.828125 -8.21875 L 8.515625 -5.0625 L -4.84375 -27.53125 L -12.625 -22.90625 L -15.28125 -27.390625 Z M 5.59375 -39.796875 "/></g></g></g><g fill="#ffffff" fill-opacity="1"><g transform="translate(202.186264, 82.30875)"><g><path d="M 3.0625 -1.484375 L -11.4375 -31.296875 L -6.09375 -33.90625 L -0.59375 -22.578125 L -0.140625 -22.703125 C 0.0546875 -24.085938 0.53125 -25.3125 1.28125 -26.375 C 2.03125 -27.445312 3.132812 -28.335938 4.59375 -29.046875 C 9.28125 -31.328125 12.921875 -29.804688 15.515625 -24.484375 L 22.171875 -10.78125 L 16.828125 -8.1875 L 10.5 -21.203125 C 9.789062 -22.660156 8.988281 -23.578125 8.09375 -23.953125 C 7.207031 -24.328125 6.148438 -24.21875 4.921875 -23.625 C 3.429688 -22.894531 2.488281 -21.816406 2.09375 -20.390625 C 1.707031 -18.972656 2.023438 -17.210938 3.046875 -15.109375 L 8.40625 -4.09375 Z M 3.0625 -1.484375 "/></g></g></g><g fill="#ffffff" fill-opacity="1"><g transform="translate(225.878383, 70.769677)"><g><path d="M 18.015625 -18.21875 L 3.84375 -12.734375 C 4.738281 -10.878906 5.820312 -9.691406 7.09375 -9.171875 C 8.375 -8.660156 9.816406 -8.71875 11.421875 -9.34375 C 12.691406 -9.832031 13.628906 -10.46875 14.234375 -11.25 C 14.835938 -12.03125 15.1875 -12.992188 15.28125 -14.140625 L 15.703125 -14.296875 L 20.3125 -13.359375 C 20.1875 -11.546875 19.582031 -9.875 18.5 -8.34375 C 17.414062 -6.8125 15.660156 -5.578125 13.234375 -4.640625 C 10.953125 -3.753906 8.8125 -3.425781 6.8125 -3.65625 C 4.820312 -3.882812 3.046875 -4.675781 1.484375 -6.03125 C -0.0664062 -7.394531 -1.320312 -9.3125 -2.28125 -11.78125 C -3.25 -14.289062 -3.59375 -16.585938 -3.3125 -18.671875 C -3.03125 -20.765625 -2.25 -22.546875 -0.96875 -24.015625 C 0.3125 -25.484375 1.957031 -26.609375 3.96875 -27.390625 C 7.09375 -28.597656 9.800781 -28.695312 12.09375 -27.6875 C 14.394531 -26.675781 16.164062 -24.570312 17.40625 -21.375 C 17.851562 -20.21875 18.160156 -19.304688 18.328125 -18.640625 Z M 11.859375 -19.953125 C 11.148438 -21.609375 10.285156 -22.679688 9.265625 -23.171875 C 8.242188 -23.660156 7.03125 -23.632812 5.625 -23.09375 C 2.832031 -22.007812 1.8125 -19.765625 2.5625 -16.359375 Z M 11.859375 -19.953125 "/></g></g></g><g fill="#ffffff" fill-opacity="1"><g transform="translate(249.058977, 61.993319)"><g/></g></g><g fill="#ffffff" fill-opacity="1"><g transform="translate(257.733087, 58.726681)"><g><path d="M 7.296875 -34.15625 C 12.222656 -35.382812 16.304688 -35.046875 19.546875 -33.140625 C 22.785156 -31.242188 25.039062 -27.773438 26.3125 -22.734375 C 27.5625 -17.710938 27.203125 -13.597656 25.234375 -10.390625 C 23.273438 -7.179688 19.832031 -4.960938 14.90625 -3.734375 L 3.953125 -0.984375 L -3.65625 -31.40625 Z M 13.265625 -8.703125 C 16.410156 -9.484375 18.554688 -10.867188 19.703125 -12.859375 C 20.859375 -14.859375 20.992188 -17.632812 20.109375 -21.1875 C 19.210938 -24.75 17.785156 -27.132812 15.828125 -28.34375 C 13.878906 -29.5625 11.332031 -29.78125 8.1875 -29 L 3.609375 -27.84375 L 8.6875 -7.546875 Z M 13.265625 -8.703125 "/></g></g></g><g fill="#ffffff" fill-opacity="1"><g transform="translate(289.174904, 51.200392)"><g><path d="M 1.71875 -27.1875 C 0.65625 -27.007812 -0.257812 -27.179688 -1.03125 -27.703125 C -1.8125 -28.222656 -2.289062 -28.988281 -2.46875 -30 C -2.632812 -31 -2.441406 -31.878906 -1.890625 -32.640625 C -1.347656 -33.398438 -0.546875 -33.867188 0.515625 -34.046875 C 1.210938 -34.171875 1.859375 -34.132812 2.453125 -33.9375 C 3.054688 -33.738281 3.550781 -33.40625 3.9375 -32.9375 C 4.332031 -32.476562 4.585938 -31.921875 4.703125 -31.265625 C 4.816406 -30.597656 4.769531 -29.976562 4.5625 -29.40625 C 4.351562 -28.832031 4 -28.347656 3.5 -27.953125 C 3.007812 -27.566406 2.414062 -27.3125 1.71875 -27.1875 Z M 3.359375 -0.59375 L -0.71875 -23.890625 L 5.125 -24.90625 L 9.203125 -1.609375 Z M 3.359375 -0.59375 "/></g></g></g><g fill="#ffffff" fill-opacity="1"><g transform="translate(300.962867, 49.069191)"><g><path d="M 4.109375 -0.53125 L 1.71875 -19.328125 L -1.59375 -18.890625 L -2.203125 -23.578125 L 1.109375 -24.015625 C 0.742188 -24.972656 0.507812 -25.882812 0.40625 -26.75 C 0.207031 -28.238281 0.378906 -29.554688 0.921875 -30.703125 C 1.460938 -31.847656 2.335938 -32.773438 3.546875 -33.484375 C 4.753906 -34.203125 6.242188 -34.675781 8.015625 -34.90625 C 10.609375 -35.238281 12.597656 -35.03125 13.984375 -34.28125 L 13.140625 -29.78125 L 12.71875 -29.640625 C 11.75 -30.148438 10.578125 -30.316406 9.203125 -30.140625 C 8.140625 -30.003906 7.375 -29.644531 6.90625 -29.0625 C 6.445312 -28.476562 6.273438 -27.742188 6.390625 -26.859375 C 6.441406 -26.472656 6.507812 -26.125 6.59375 -25.8125 C 6.6875 -25.5 6.820312 -25.148438 7 -24.765625 L 13.6875 -25.609375 L 14.296875 -20.921875 L 7.609375 -20.078125 L 10 -1.28125 Z M 4.109375 -0.53125 "/></g></g></g><g fill="#ffffff" fill-opacity="1"><g transform="translate(317.029432, 46.996732)"><g><path d="M 4.125 -0.3125 L 2.734375 -19.21875 L -0.59375 -18.96875 L -0.953125 -23.671875 L 2.375 -23.921875 C 2.0625 -24.898438 1.875 -25.820312 1.8125 -26.6875 C 1.707031 -28.1875 1.953125 -29.488281 2.546875 -30.59375 C 3.148438 -31.707031 4.070312 -32.59375 5.3125 -33.25 C 6.5625 -33.90625 8.078125 -34.296875 9.859375 -34.421875 C 12.460938 -34.617188 14.4375 -34.3125 15.78125 -33.5 L 14.71875 -29.03125 L 14.265625 -28.921875 C 13.335938 -29.484375 12.1875 -29.710938 10.8125 -29.609375 C 9.738281 -29.523438 8.953125 -29.203125 8.453125 -28.640625 C 7.953125 -28.085938 7.734375 -27.363281 7.796875 -26.46875 C 7.828125 -26.09375 7.878906 -25.742188 7.953125 -25.421875 C 8.035156 -25.109375 8.148438 -24.753906 8.296875 -24.359375 L 15.03125 -24.84375 L 15.390625 -20.140625 L 8.65625 -19.65625 L 10.046875 -0.75 Z M 4.125 -0.3125 "/></g></g></g><g fill="#ffffff" fill-opacity="1"><g transform="translate(332.960849, 45.639404)"><g><path d="M 23.296875 -10.65625 L 8.09375 -10.546875 C 8.28125 -8.492188 8.878906 -7 9.890625 -6.0625 C 10.898438 -5.132812 12.269531 -4.675781 14 -4.6875 C 15.351562 -4.695312 16.445312 -4.957031 17.28125 -5.46875 C 18.125 -5.988281 18.796875 -6.765625 19.296875 -7.796875 L 19.75 -7.796875 L 23.734375 -5.296875 C 22.972656 -3.628906 21.8125 -2.273438 20.25 -1.234375 C 18.695312 -0.191406 16.625 0.335938 14.03125 0.359375 C 11.582031 0.367188 9.460938 -0.0820312 7.671875 -1 C 5.890625 -1.914062 4.507812 -3.285156 3.53125 -5.109375 C 2.550781 -6.941406 2.054688 -9.179688 2.046875 -11.828125 C 2.023438 -14.515625 2.515625 -16.78125 3.515625 -18.625 C 4.515625 -20.476562 5.875 -21.867188 7.59375 -22.796875 C 9.320312 -23.722656 11.265625 -24.191406 13.421875 -24.203125 C 16.765625 -24.234375 19.332031 -23.363281 21.125 -21.59375 C 22.914062 -19.832031 23.828125 -17.238281 23.859375 -13.8125 C 23.867188 -12.570312 23.832031 -11.609375 23.75 -10.921875 Z M 18.15625 -14.453125 C 18.09375 -16.253906 17.664062 -17.5625 16.875 -18.375 C 16.09375 -19.195312 14.953125 -19.601562 13.453125 -19.59375 C 10.453125 -19.570312 8.695312 -17.835938 8.1875 -14.390625 Z M 18.15625 -14.453125 "/></g></g></g><g fill="#ffffff" fill-opacity="1"><g transform="translate(357.54359, 45.54751)"><g><path d="M 3.40625 0.203125 L 4.859375 -23.40625 L 10.609375 -23.046875 L 10.390625 -19.546875 L 10.84375 -19.421875 C 11.5 -20.703125 12.304688 -21.617188 13.265625 -22.171875 C 14.234375 -22.734375 15.378906 -22.972656 16.703125 -22.890625 C 18.046875 -22.804688 19.054688 -22.515625 19.734375 -22.015625 L 18.40625 -16.96875 L 17.953125 -16.890625 C 17.578125 -17.078125 17.210938 -17.21875 16.859375 -17.3125 C 16.515625 -17.40625 16.082031 -17.46875 15.5625 -17.5 C 13.914062 -17.601562 12.617188 -17.097656 11.671875 -15.984375 C 10.722656 -14.867188 10.171875 -13.03125 10.015625 -10.46875 L 9.328125 0.578125 Z M 3.40625 0.203125 "/></g></g></g><g fill="#ffffff" fill-opacity="1"><g transform="translate(374.950544, 46.460531)"><g><path d="M 24.53125 -7.34375 L 9.46875 -9.328125 C 9.363281 -7.273438 9.75 -5.71875 10.625 -4.65625 C 11.5 -3.59375 12.789062 -2.945312 14.5 -2.71875 C 15.84375 -2.539062 16.96875 -2.648438 17.875 -3.046875 C 18.78125 -3.441406 19.550781 -4.117188 20.1875 -5.078125 L 20.640625 -5.015625 L 24.234375 -1.984375 C 23.253906 -0.453125 21.921875 0.722656 20.234375 1.546875 C 18.546875 2.367188 16.414062 2.613281 13.84375 2.28125 C 11.414062 1.957031 9.378906 1.21875 7.734375 0.0625 C 6.097656 -1.09375 4.921875 -2.640625 4.203125 -4.578125 C 3.484375 -6.523438 3.296875 -8.8125 3.640625 -11.4375 C 3.992188 -14.09375 4.789062 -16.269531 6.03125 -17.96875 C 7.28125 -19.664062 8.820312 -20.851562 10.65625 -21.53125 C 12.488281 -22.21875 14.476562 -22.421875 16.625 -22.140625 C 19.9375 -21.703125 22.359375 -20.484375 23.890625 -18.484375 C 25.421875 -16.492188 25.96875 -13.800781 25.53125 -10.40625 C 25.363281 -9.175781 25.195312 -8.222656 25.03125 -7.546875 Z M 19.96875 -11.828125 C 20.15625 -13.617188 19.910156 -14.972656 19.234375 -15.890625 C 18.566406 -16.804688 17.492188 -17.363281 16.015625 -17.5625 C 13.035156 -17.945312 11.054688 -16.46875 10.078125 -13.125 Z M 19.96875 -11.828125 "/></g></g></g><g fill="#ffffff" fill-opacity="1"><g transform="translate(399.118187, 49.535569)"><g><path d="M 3.328125 0.71875 L 8.34375 -22.40625 L 13.921875 -21.1875 L 13.1875 -17.796875 L 13.59375 -17.59375 C 15.613281 -19.90625 18.238281 -20.710938 21.46875 -20.015625 C 24.132812 -19.429688 25.929688 -18.273438 26.859375 -16.546875 C 27.796875 -14.816406 27.960938 -12.566406 27.359375 -9.796875 L 24.09375 5.234375 L 18.296875 3.96875 L 21.40625 -10.34375 C 21.738281 -11.875 21.664062 -13.046875 21.1875 -13.859375 C 20.71875 -14.679688 19.8125 -15.238281 18.46875 -15.53125 C 16.800781 -15.882812 15.382812 -15.625 14.21875 -14.75 C 13.050781 -13.875 12.21875 -12.285156 11.71875 -9.984375 L 9.125 1.984375 Z M 3.328125 0.71875 "/></g></g></g><g fill="#ffffff" fill-opacity="1"><g transform="translate(424.899994, 55.142761)"><g><path d="M 13.078125 4.4375 C 10.878906 3.78125 9.078125 2.738281 7.671875 1.3125 C 6.265625 -0.113281 5.359375 -1.847656 4.953125 -3.890625 C 4.546875 -5.941406 4.71875 -8.203125 5.46875 -10.671875 C 6.21875 -13.171875 7.332031 -15.160156 8.8125 -16.640625 C 10.289062 -18.117188 12.003906 -19.054688 13.953125 -19.453125 C 15.898438 -19.859375 17.945312 -19.738281 20.09375 -19.09375 C 24.875 -17.632812 27.40625 -14.972656 27.6875 -11.109375 L 22.9375 -9.5 L 22.515625 -9.625 C 22.367188 -10.84375 22 -11.820312 21.40625 -12.5625 C 20.820312 -13.3125 19.894531 -13.878906 18.625 -14.265625 C 16.976562 -14.753906 15.523438 -14.570312 14.265625 -13.71875 C 13.003906 -12.863281 12.019531 -11.257812 11.3125 -8.90625 C 10.601562 -6.582031 10.539062 -4.707031 11.125 -3.28125 C 11.707031 -1.863281 12.84375 -0.898438 14.53125 -0.390625 C 15.757812 -0.015625 16.898438 -0.03125 17.953125 -0.4375 C 19.015625 -0.84375 19.921875 -1.609375 20.671875 -2.734375 L 21.109375 -2.65625 L 24.484375 0.8125 C 23.316406 2.539062 21.773438 3.773438 19.859375 4.515625 C 17.953125 5.265625 15.691406 5.238281 13.078125 4.4375 Z M 13.078125 4.4375 "/></g></g></g><g fill="#ffffff" fill-opacity="1"><g transform="translate(447.039409, 61.785079)"><g><path d="M 25.578125 -1.25 L 11.421875 -6.796875 C 10.835938 -4.816406 10.84375 -3.207031 11.4375 -1.96875 C 12.03125 -0.726562 13.128906 0.203125 14.734375 0.828125 C 15.992188 1.316406 17.109375 1.476562 18.078125 1.3125 C 19.046875 1.15625 19.957031 0.691406 20.8125 -0.078125 L 21.234375 0.09375 L 24 3.890625 C 22.6875 5.148438 21.109375 5.972656 19.265625 6.359375 C 17.429688 6.753906 15.304688 6.476562 12.890625 5.53125 C 10.609375 4.632812 8.8125 3.425781 7.5 1.90625 C 6.1875 0.394531 5.414062 -1.382812 5.1875 -3.4375 C 4.957031 -5.5 5.320312 -7.757812 6.28125 -10.21875 C 7.257812 -12.71875 8.554688 -14.640625 10.171875 -15.984375 C 11.785156 -17.335938 13.5625 -18.125 15.5 -18.34375 C 17.445312 -18.570312 19.425781 -18.289062 21.4375 -17.5 C 24.550781 -16.28125 26.613281 -14.519531 27.625 -12.21875 C 28.644531 -9.925781 28.53125 -7.179688 27.28125 -3.984375 C 26.832031 -2.828125 26.4375 -1.945312 26.09375 -1.34375 Z M 22.234375 -6.6875 C 22.835938 -8.382812 22.921875 -9.757812 22.484375 -10.8125 C 22.054688 -11.863281 21.144531 -12.660156 19.75 -13.203125 C 16.957031 -14.296875 14.691406 -13.335938 12.953125 -10.328125 Z M 22.234375 -6.6875 "/></g></g></g><g fill="#ffffff" fill-opacity="1"><g transform="translate(470.05499, 70.985469)"><g/></g></g><g fill="#ffffff" fill-opacity="1"><g transform="translate(478.87875, 74.925765)"><g><path d="M 19.09375 -4.421875 L 7.375 -10.390625 L 9.75 -15.0625 L 21.46875 -9.09375 Z M 19.09375 -4.421875 "/></g></g></g><g fill="#ffffff" fill-opacity="1"><g transform="translate(493.307183, 82.338607)"><g/></g></g><g fill="#ffffff" fill-opacity="1"><g transform="translate(501.547249, 86.245306)"><g><path d="M 8.09375 5.453125 L 3.375 2.28125 L 20.890625 -23.734375 L 27.625 -19.203125 L 21.3125 4.359375 L 21.703125 4.609375 L 41.109375 -10.125 L 47.6875 -5.703125 L 30.171875 20.3125 L 25.296875 17.03125 L 36.875 -0.15625 L 36.46875 -0.515625 L 18.84375 12.6875 L 14.546875 9.796875 L 20.171875 -11.5 L 19.671875 -11.734375 Z M 8.09375 5.453125 "/></g></g></g><g fill="#ffffff" fill-opacity="1"><g transform="translate(533.554971, 108.178206)"><g><path d="M 6.78125 6.25 C 5.625 5.28125 4.796875 4.222656 4.296875 3.078125 C 3.796875 1.941406 3.65625 0.769531 3.875 -0.4375 C 4.101562 -1.65625 4.707031 -2.847656 5.6875 -4.015625 C 6.582031 -5.085938 7.566406 -5.796875 8.640625 -6.140625 C 9.710938 -6.492188 10.925781 -6.503906 12.28125 -6.171875 C 13.644531 -5.835938 15.207031 -5.140625 16.96875 -4.078125 C 18.195312 -3.347656 19.179688 -2.851562 19.921875 -2.59375 C 20.660156 -2.332031 21.238281 -2.25 21.65625 -2.34375 C 22.082031 -2.445312 22.46875 -2.703125 22.8125 -3.109375 C 23.289062 -3.691406 23.453125 -4.304688 23.296875 -4.953125 C 23.148438 -5.597656 22.609375 -6.316406 21.671875 -7.109375 C 20.660156 -7.941406 19.507812 -8.515625 18.21875 -8.828125 C 16.925781 -9.140625 15.632812 -9.207031 14.34375 -9.03125 L 14.015625 -9.296875 L 14.515625 -13.765625 C 16.296875 -14.023438 18.085938 -13.890625 19.890625 -13.359375 C 21.691406 -12.828125 23.375 -11.910156 24.9375 -10.609375 C 27.351562 -8.597656 28.671875 -6.628906 28.890625 -4.703125 C 29.117188 -2.785156 28.453125 -0.890625 26.890625 0.984375 L 20.3125 8.875 C 19.632812 9.6875 19.65625 10.390625 20.375 10.984375 C 20.644531 11.210938 20.953125 11.390625 21.296875 11.515625 L 21.5 11.78125 L 19.15625 15.21875 C 18.769531 15.175781 18.304688 15.019531 17.765625 14.75 C 17.234375 14.476562 16.695312 14.117188 16.15625 13.671875 C 15.070312 12.765625 14.394531 11.847656 14.125 10.921875 C 13.863281 10.003906 13.976562 8.988281 14.46875 7.875 L 14.125 7.5625 C 11.664062 8.707031 9.21875 8.269531 6.78125 6.25 Z M 11.078125 4.046875 C 12.140625 4.921875 13.28125 5.269531 14.5 5.09375 C 15.71875 4.914062 16.859375 4.195312 17.921875 2.9375 L 19.453125 1.078125 L 19.1875 0.75 C 18.726562 0.738281 18.210938 0.625 17.640625 0.40625 C 17.078125 0.1875 16.320312 -0.203125 15.375 -0.765625 C 14.238281 -1.410156 13.285156 -1.710938 12.515625 -1.671875 C 11.753906 -1.640625 11.070312 -1.253906 10.46875 -0.515625 C 9.8125 0.265625 9.539062 1.046875 9.65625 1.828125 C 9.78125 2.617188 10.253906 3.359375 11.078125 4.046875 Z M 11.078125 4.046875 "/></g></g></g><g fill="#ffffff" fill-opacity="1"><g transform="translate(551.785535, 123.328449)"><g><path d="M 2.4375 2.375 L 25.515625 -21.421875 L 29.78125 -17.296875 L 16.96875 -4.09375 L 17.390625 -3.6875 L 28.5 -5.3125 L 32.828125 -1.109375 L 32.484375 -0.75 L 19.5 1.09375 L 17.390625 16.125 L 17.015625 16.5 L 12.515625 12.140625 L 14.0625 -0.25 L 13.640625 -0.65625 L 6.703125 6.5 Z M 2.4375 2.375 "/></g></g></g><g fill="#ffffff" fill-opacity="1"><g transform="translate(567.98563, 138.92549)"><g><path d="M 23.34375 10.578125 L 13.265625 -0.8125 C 11.835938 0.664062 11.101562 2.09375 11.0625 3.46875 C 11.03125 4.84375 11.585938 6.175781 12.734375 7.46875 C 13.628906 8.476562 14.546875 9.132812 15.484375 9.4375 C 16.421875 9.738281 17.441406 9.738281 18.546875 9.4375 L 18.859375 9.78125 L 19.578125 14.421875 C 17.828125 14.929688 16.046875 14.941406 14.234375 14.453125 C 12.421875 13.972656 10.660156 12.757812 8.953125 10.8125 C 7.328125 8.976562 6.273438 7.085938 5.796875 5.140625 C 5.316406 3.191406 5.441406 1.25 6.171875 -0.6875 C 6.910156 -2.625 8.273438 -4.472656 10.265625 -6.234375 C 12.273438 -8.003906 14.304688 -9.117188 16.359375 -9.578125 C 18.410156 -10.046875 20.347656 -9.929688 22.171875 -9.234375 C 24.003906 -8.546875 25.632812 -7.394531 27.0625 -5.78125 C 29.28125 -3.269531 30.3125 -0.757812 30.15625 1.75 C 30.007812 4.257812 28.648438 6.648438 26.078125 8.921875 C 25.148438 9.742188 24.40625 10.347656 23.84375 10.734375 Z M 22.828125 4.203125 C 24.148438 2.960938 24.859375 1.78125 24.953125 0.65625 C 25.046875 -0.46875 24.597656 -1.59375 23.609375 -2.71875 C 21.617188 -4.96875 19.160156 -5.148438 16.234375 -3.265625 Z M 22.828125 4.203125 "/></g></g></g><g fill="#ffffff" fill-opacity="1"><g transform="translate(584.254766, 157.625208)"><g/></g></g><g fill="#ffffff" fill-opacity="1"><g transform="translate(590.292938, 164.884515)"><g><path d="M 40.109375 2.609375 L 35.828125 5.59375 L 30.625 -1.828125 L 9.21875 13.171875 L 5.6875 8.109375 L 27.09375 -6.890625 L 21.90625 -14.296875 L 26.1875 -17.28125 Z M 40.109375 2.609375 "/></g></g></g><g fill="#ffffff" fill-opacity="1"><g transform="translate(604.499566, 185.010568)"><g><path d="M 1.71875 2.9375 L 30.375 -13.75 L 33.359375 -8.609375 L 22.46875 -2.265625 L 22.640625 -1.84375 C 24.035156 -1.75 25.289062 -1.363281 26.40625 -0.6875 C 27.519531 -0.0195312 28.484375 1.007812 29.296875 2.40625 C 31.921875 6.914062 30.675781 10.660156 25.5625 13.640625 L 12.40625 21.3125 L 9.421875 16.171875 L 21.921875 8.890625 C 23.328125 8.066406 24.179688 7.195312 24.484375 6.28125 C 24.796875 5.363281 24.609375 4.316406 23.921875 3.140625 C 23.085938 1.703125 21.945312 0.84375 20.5 0.5625 C 19.050781 0.28125 17.3125 0.726562 15.28125 1.90625 L 4.703125 8.078125 Z M 1.71875 2.9375 "/></g></g></g><g fill="#ffffff" fill-opacity="1"><g transform="translate(617.776708, 207.773815)"><g><path d="M 19.515625 16.609375 L 12.984375 2.875 C 11.203125 3.90625 10.101562 5.078125 9.6875 6.390625 C 9.269531 7.703125 9.429688 9.140625 10.171875 10.703125 C 10.753906 11.921875 11.457031 12.800781 12.28125 13.34375 C 13.101562 13.882812 14.085938 14.164062 15.234375 14.1875 L 15.421875 14.59375 L 14.84375 19.25 C 13.019531 19.257812 11.304688 18.78125 9.703125 17.8125 C 8.097656 16.851562 6.738281 15.203125 5.625 12.859375 C 4.570312 10.648438 4.082031 8.539062 4.15625 6.53125 C 4.226562 4.53125 4.882812 2.695312 6.125 1.03125 C 7.363281 -0.625 9.179688 -2.019531 11.578125 -3.15625 C 14.003906 -4.3125 16.265625 -4.828125 18.359375 -4.703125 C 20.460938 -4.578125 22.296875 -3.925781 23.859375 -2.75 C 25.429688 -1.582031 26.679688 -0.0234375 27.609375 1.921875 C 29.046875 4.929688 29.34375 7.617188 28.5 9.984375 C 27.664062 12.359375 25.703125 14.285156 22.609375 15.765625 C 21.492188 16.296875 20.609375 16.671875 19.953125 16.890625 Z M 20.78125 10.328125 C 22.382812 9.503906 23.390625 8.566406 23.796875 7.515625 C 24.210938 6.460938 24.097656 5.257812 23.453125 3.90625 C 22.160156 1.1875 19.84375 0.328125 16.5 1.328125 Z M 20.78125 10.328125 "/></g></g></g><g fill="#ffffff" fill-opacity="1"><g transform="translate(628.259741, 230.234307)"><g/></g></g><g fill="#ffffff" fill-opacity="1"><g transform="translate(632.312838, 238.39084)"><g><path d="M 4.546875 14.265625 L 2.4375 7.671875 L 30.140625 -8.703125 L 32.015625 -2.8125 L 12.453125 8.390625 L 12.609375 8.90625 L 35.3125 7.5625 L 36.921875 12.609375 L 17.65625 24.765625 L 17.8125 25.265625 L 40.265625 23.125 L 42.078125 28.8125 L 10.03125 31.484375 L 7.921875 24.859375 L 25.515625 13.5 L 25.375 13.0625 Z M 4.546875 14.265625 "/></g></g></g><g fill="#ffffff" fill-opacity="1"><g transform="translate(643.942863, 275.998422)"><g><path d="M 1.4375 9.125 C 1.132812 7.644531 1.140625 6.300781 1.453125 5.09375 C 1.765625 3.882812 2.382812 2.875 3.3125 2.0625 C 4.25 1.257812 5.460938 0.703125 6.953125 0.390625 C 8.316406 0.109375 9.523438 0.160156 10.578125 0.546875 C 11.640625 0.941406 12.597656 1.691406 13.453125 2.796875 C 14.304688 3.898438 15.097656 5.414062 15.828125 7.34375 C 16.347656 8.6875 16.816406 9.6875 17.234375 10.34375 C 17.648438 11.007812 18.050781 11.4375 18.4375 11.625 C 18.820312 11.8125 19.273438 11.847656 19.796875 11.734375 C 20.546875 11.578125 21.0625 11.195312 21.34375 10.59375 C 21.625 10 21.640625 9.101562 21.390625 7.90625 C 21.117188 6.613281 20.570312 5.445312 19.75 4.40625 C 18.9375 3.363281 17.972656 2.507812 16.859375 1.84375 L 16.765625 1.421875 L 19.9375 -1.765625 C 21.488281 -0.867188 22.804688 0.347656 23.890625 1.890625 C 24.972656 3.429688 25.722656 5.203125 26.140625 7.203125 C 26.773438 10.273438 26.582031 12.628906 25.5625 14.265625 C 24.539062 15.910156 22.835938 16.984375 20.453125 17.484375 L 10.390625 19.578125 C 9.359375 19.796875 8.9375 20.359375 9.125 21.265625 C 9.195312 21.617188 9.332031 21.953125 9.53125 22.265625 L 9.515625 22.59375 L 5.546875 23.84375 C 5.265625 23.570312 4.992188 23.160156 4.734375 22.609375 C 4.484375 22.054688 4.289062 21.4375 4.15625 20.75 C 3.863281 19.363281 3.898438 18.226562 4.265625 17.34375 C 4.640625 16.457031 5.363281 15.726562 6.4375 15.15625 L 6.375 14.71875 C 3.726562 14.082031 2.082031 12.21875 1.4375 9.125 Z M 6.171875 10.0625 C 6.453125 11.40625 7.125 12.382812 8.1875 13 C 9.257812 13.625 10.601562 13.769531 12.21875 13.4375 L 14.5625 12.9375 L 14.5625 12.515625 C 14.21875 12.222656 13.890625 11.8125 13.578125 11.28125 C 13.273438 10.757812 12.921875 9.988281 12.515625 8.96875 C 12.035156 7.738281 11.484375 6.90625 10.859375 6.46875 C 10.242188 6.03125 9.460938 5.90625 8.515625 6.09375 C 7.523438 6.300781 6.832031 6.75 6.4375 7.4375 C 6.039062 8.132812 5.953125 9.007812 6.171875 10.0625 Z M 6.171875 10.0625 "/></g></g></g><g fill="#ffffff" fill-opacity="1"><g transform="translate(648.834061, 299.149881)"><g><path d="M -9.28125 6.453125 C -9.414062 5.441406 -9.457031 4.519531 -9.40625 3.6875 C -9.351562 2.863281 -9.226562 2.179688 -9.03125 1.640625 L -4.15625 1.96875 L -3.984375 2.328125 C -4.128906 2.710938 -4.222656 3.171875 -4.265625 3.703125 C -4.304688 4.242188 -4.289062 4.796875 -4.21875 5.359375 C -4.101562 6.304688 -3.878906 7.078125 -3.546875 7.671875 C -3.222656 8.273438 -2.742188 8.753906 -2.109375 9.109375 C -1.472656 9.472656 -0.628906 9.765625 0.421875 9.984375 L 23.53125 -2.484375 L 24.328125 3.6875 L 8.734375 11.578125 L 8.8125 12.09375 L 25.859375 15.6875 L 26.625 21.703125 L 0.484375 15.453125 C -1.628906 14.972656 -3.351562 14.359375 -4.6875 13.609375 C -6.03125 12.859375 -7.078125 11.90625 -7.828125 10.75 C -8.578125 9.601562 -9.0625 8.171875 -9.28125 6.453125 Z M -9.28125 6.453125 "/></g></g></g><g fill="#ffffff" fill-opacity="1"><g transform="translate(651.755891, 323.450293)"><g/></g></g><g fill="#ffffff" fill-opacity="1"><g transform="translate(652.481579, 333.207142)"><g><path d="M 0.03125 6.046875 C 0.0078125 5.285156 0.140625 4.609375 0.421875 4.015625 C 0.703125 3.429688 1.109375 2.972656 1.640625 2.640625 C 2.171875 2.316406 2.78125 2.144531 3.46875 2.125 C 4.15625 2.101562 4.773438 2.234375 5.328125 2.515625 C 5.878906 2.804688 6.320312 3.234375 6.65625 3.796875 C 7 4.367188 7.179688 5.035156 7.203125 5.796875 C 7.234375 6.566406 7.101562 7.242188 6.8125 7.828125 C 6.53125 8.421875 6.125 8.878906 5.59375 9.203125 C 5.0625 9.535156 4.453125 9.710938 3.765625 9.734375 C 2.722656 9.773438 1.847656 9.457031 1.140625 8.78125 C 0.441406 8.113281 0.0703125 7.203125 0.03125 6.046875 Z M 0.03125 6.046875 "/></g></g></g><g fill="#ffffff" fill-opacity="1"><g transform="translate(652.899709, 344.740659)"><g/></g></g><g fill="#ffffff" fill-opacity="1"><g transform="translate(653.225537, 354.113092)"><g><path d="M 30.359375 18 C 30.222656 20.25 29.695312 22.144531 28.78125 23.6875 C 27.863281 25.226562 26.640625 26.359375 25.109375 27.078125 C 23.585938 27.804688 21.851562 28.113281 19.90625 28 C 17.945312 27.882812 16.253906 27.375 14.828125 26.46875 C 13.398438 25.570312 12.320312 24.304688 11.59375 22.671875 C 10.875 21.035156 10.582031 19.09375 10.71875 16.84375 L 11.0625 10.9375 L -0.609375 10.25 L -0.234375 4.078125 L 31.078125 5.921875 Z M 15.65625 16.328125 C 15.457031 19.773438 17 21.59375 20.28125 21.78125 C 23.550781 21.976562 25.285156 20.351562 25.484375 16.90625 L 25.78125 11.8125 L 15.953125 11.234375 Z M 15.65625 16.328125 "/></g></g></g><g fill="#ffffff" fill-opacity="1"><g transform="translate(651.465545, 381.503268)"><g><path d="M -0.453125 3.375 L 23 6.5 L 22.25 12.21875 L 18.765625 11.75 L 18.609375 12.1875 C 19.835938 12.925781 20.695312 13.800781 21.1875 14.8125 C 21.675781 15.820312 21.832031 16.976562 21.65625 18.28125 C 21.476562 19.613281 21.113281 20.601562 20.5625 21.25 L 15.625 19.5625 L 15.578125 19.109375 C 15.785156 18.742188 15.945312 18.390625 16.0625 18.046875 C 16.1875 17.703125 16.285156 17.273438 16.359375 16.765625 C 16.578125 15.117188 16.164062 13.785156 15.125 12.765625 C 14.082031 11.742188 12.285156 11.0625 9.734375 10.71875 L -1.234375 9.265625 Z M -0.453125 3.375 "/></g></g></g><g fill="#ffffff" fill-opacity="1"><g transform="translate(649.370661, 398.764788)"><g><path d="M -3.21875 13.375 C -2.75 11.09375 -1.867188 9.191406 -0.578125 7.671875 C 0.703125 6.148438 2.332031 5.101562 4.3125 4.53125 C 6.300781 3.96875 8.570312 3.945312 11.125 4.46875 C 13.675781 5 15.757812 5.921875 17.375 7.234375 C 18.988281 8.554688 20.082031 10.171875 20.65625 12.078125 C 21.238281 13.984375 21.296875 16.078125 20.828125 18.359375 C 20.359375 20.617188 19.476562 22.507812 18.1875 24.03125 C 16.90625 25.550781 15.257812 26.597656 13.25 27.171875 C 11.25 27.753906 8.972656 27.78125 6.421875 27.25 C 3.867188 26.726562 1.796875 25.800781 0.203125 24.46875 C -1.390625 23.144531 -2.472656 21.53125 -3.046875 19.625 C -3.628906 17.71875 -3.6875 15.632812 -3.21875 13.375 Z M 1.71875 14.40625 C 0.96875 18 2.945312 20.28125 7.65625 21.25 C 10.101562 21.757812 11.992188 21.664062 13.328125 20.96875 C 14.671875 20.28125 15.523438 19.066406 15.890625 17.328125 C 16.628906 13.722656 14.628906 11.429688 9.890625 10.453125 C 5.179688 9.484375 2.457031 10.800781 1.71875 14.40625 Z M 1.71875 14.40625 "/></g></g></g><g fill="#ffffff" fill-opacity="1"><g transform="translate(644.162899, 424.322513)"><g><path d="M -3.796875 11.078125 C -3.253906 9.273438 -2.34375 7.816406 -1.0625 6.703125 C 0.21875 5.585938 1.851562 4.898438 3.84375 4.640625 C 5.84375 4.390625 8.128906 4.648438 10.703125 5.421875 C 13.296875 6.191406 15.351562 7.238281 16.875 8.5625 C 18.394531 9.894531 19.375 11.40625 19.8125 13.09375 C 20.257812 14.78125 20.207031 16.550781 19.65625 18.40625 C 19.226562 19.820312 18.613281 20.96875 17.8125 21.84375 C 17.019531 22.726562 16.007812 23.375 14.78125 23.78125 L 14.734375 24.25 L 26.3125 27.71875 L 24.609375 33.40625 L -7.15625 23.890625 L -5.453125 18.203125 L -2.515625 19.078125 L -2.28125 18.671875 C -3.164062 17.722656 -3.753906 16.609375 -4.046875 15.328125 C -4.347656 14.054688 -4.265625 12.640625 -3.796875 11.078125 Z M 0.5 14.359375 C 0.0195312 15.960938 0.207031 17.398438 1.0625 18.671875 C 1.925781 19.953125 3.519531 20.941406 5.84375 21.640625 C 8.175781 22.335938 10.054688 22.390625 11.484375 21.796875 C 12.921875 21.210938 13.878906 20.117188 14.359375 18.515625 C 14.859375 16.835938 14.679688 15.390625 13.828125 14.171875 C 12.972656 12.960938 11.347656 12 8.953125 11.28125 C 6.566406 10.5625 4.6875 10.472656 3.3125 11.015625 C 1.9375 11.566406 1 12.679688 0.5 14.359375 Z M 0.5 14.359375 "/></g></g></g><g fill="#ffffff" fill-opacity="1"><g transform="translate(636.474922, 450.141562)"><g><path d="M -4.40625 9.890625 C -3.425781 7.421875 -2.03125 5.863281 -0.21875 5.21875 C 1.59375 4.582031 3.765625 4.765625 6.296875 5.765625 L 20.859375 11.546875 L 18.671875 17.0625 L 4.8125 11.5625 C 3.457031 11.03125 2.351562 10.929688 1.5 11.265625 C 0.65625 11.609375 -0.00390625 12.378906 -0.484375 13.578125 C -1.085938 15.109375 -1.050781 16.5 -0.375 17.75 C 0.289062 19 1.695312 20.050781 3.84375 20.90625 L 15.34375 25.46875 L 13.15625 30.984375 L -8.828125 22.265625 L -6.734375 16.96875 L -3.515625 18.25 L -3.234375 17.859375 C -4.210938 16.648438 -4.8125 15.414062 -5.03125 14.15625 C -5.25 12.894531 -5.039062 11.472656 -4.40625 9.890625 Z M -4.40625 9.890625 "/></g></g></g><g fill="#ffffff" fill-opacity="1"><g transform="translate(626.866605, 474.352439)"><g><path d="M -6.5 12.171875 C -5.488281 10.117188 -4.164062 8.507812 -2.53125 7.34375 C -0.90625 6.1875 0.953125 5.578125 3.046875 5.515625 C 5.140625 5.453125 7.34375 5.988281 9.65625 7.125 C 11.988281 8.28125 13.765625 9.703125 14.984375 11.390625 C 16.203125 13.085938 16.851562 14.929688 16.9375 16.921875 C 17.019531 18.910156 16.566406 20.914062 15.578125 22.9375 C 13.367188 27.40625 10.332031 29.460938 6.46875 29.109375 L 5.65625 24.171875 L 5.84375 23.78125 C 7.0625 23.84375 8.082031 23.644531 8.90625 23.1875 C 9.738281 22.726562 10.453125 21.90625 11.046875 20.71875 C 11.804688 19.175781 11.863281 17.710938 11.21875 16.328125 C 10.582031 14.941406 9.160156 13.703125 6.953125 12.609375 C 4.773438 11.535156 2.9375 11.171875 1.4375 11.515625 C -0.0625 11.859375 -1.195312 12.820312 -1.96875 14.40625 C -2.539062 15.550781 -2.710938 16.679688 -2.484375 17.796875 C -2.265625 18.910156 -1.65625 19.925781 -0.65625 20.84375 L -0.8125 21.265625 L -4.78125 24.03125 C -6.300781 22.601562 -7.269531 20.878906 -7.6875 18.859375 C -8.101562 16.847656 -7.707031 14.617188 -6.5 12.171875 Z M -6.5 12.171875 "/></g></g></g><g fill="#ffffff" fill-opacity="1"><g transform="translate(616.502702, 495.218199)"><g><path d="M -3.296875 16.953125 L -7.875 16.078125 C -8.007812 15.265625 -7.960938 14.359375 -7.734375 13.359375 C -7.503906 12.367188 -7.082031 11.34375 -6.46875 10.28125 C -5.1875 8.0625 -3.609375 6.726562 -1.734375 6.28125 C 0.140625 5.832031 2.226562 6.269531 4.53125 7.59375 L 14.25 13.234375 L 16.046875 10.109375 L 20.125 12.46875 L 18.328125 15.59375 L 22.328125 17.90625 L 20.171875 23.53125 L 15.34375 20.734375 L 11.984375 26.546875 L 7.90625 24.1875 L 11.265625 18.375 L 1.921875 12.953125 C 0.898438 12.367188 0.0390625 12.148438 -0.65625 12.296875 C -1.363281 12.441406 -1.953125 12.921875 -2.421875 13.734375 C -2.953125 14.648438 -3.171875 15.59375 -3.078125 16.5625 Z M -3.296875 16.953125 "/></g></g></g><g fill="#ffffff" fill-opacity="1"><g transform="translate(607.884878, 510.282887)"><g><path d="M -6.5 8.953125 C -5.601562 7.609375 -4.625 6.484375 -3.5625 5.578125 C -2.5 4.671875 -1.429688 4.003906 -0.359375 3.578125 C 0.710938 3.160156 1.734375 3 2.703125 3.09375 L 3.84375 7.8125 L 3.59375 8.1875 C 2.269531 8.257812 1.09375 8.59375 0.0625 9.1875 C -0.96875 9.789062 -1.832031 10.617188 -2.53125 11.671875 C -3.164062 12.628906 -3.472656 13.460938 -3.453125 14.171875 C -3.441406 14.890625 -3.113281 15.460938 -2.46875 15.890625 C -1.96875 16.222656 -1.429688 16.328125 -0.859375 16.203125 C -0.285156 16.085938 0.351562 15.695312 1.0625 15.03125 L 3.421875 12.84375 C 5.191406 11.195312 6.851562 10.242188 8.40625 9.984375 C 9.96875 9.722656 11.488281 10.082031 12.96875 11.0625 C 14.1875 11.875 15.039062 12.894531 15.53125 14.125 C 16.019531 15.363281 16.125 16.707031 15.84375 18.15625 C 15.570312 19.613281 14.929688 21.097656 13.921875 22.609375 C 12.742188 24.378906 11.507812 25.675781 10.21875 26.5 C 8.925781 27.332031 7.632812 27.789062 6.34375 27.875 L 5.234375 23.328125 L 5.484375 22.96875 C 6.472656 22.832031 7.335938 22.515625 8.078125 22.015625 C 8.816406 21.523438 9.46875 20.859375 10.03125 20.015625 C 11.332031 18.066406 11.375 16.691406 10.15625 15.890625 C 9.644531 15.546875 9.101562 15.445312 8.53125 15.59375 C 7.96875 15.738281 7.28125 16.203125 6.46875 16.984375 L 4.3125 19.0625 C 2.550781 20.769531 0.894531 21.765625 -0.65625 22.046875 C -2.21875 22.335938 -3.796875 21.957031 -5.390625 20.90625 C -6.640625 20.070312 -7.53125 19.03125 -8.0625 17.78125 C -8.601562 16.53125 -8.742188 15.148438 -8.484375 13.640625 C -8.234375 12.128906 -7.570312 10.566406 -6.5 8.953125 Z M -6.5 8.953125 "/></g></g></g><g fill="#ffffff" fill-opacity="1"><g transform="translate(596.15772, 527.684682)"><g/></g></g><g fill="#ffffff" fill-opacity="1"><g transform="translate(590.853374, 535.397558)"><g><path d="M -8.59375 9.53125 C -7.132812 7.789062 -5.5625 6.515625 -3.875 5.703125 C -2.195312 4.898438 -0.515625 4.609375 1.171875 4.828125 C 2.867188 5.046875 4.453125 5.773438 5.921875 7.015625 C 7.503906 8.335938 8.488281 9.828125 8.875 11.484375 C 9.257812 13.148438 9.125 15.054688 8.46875 17.203125 L 8.78125 17.53125 C 10.269531 17.5625 11.519531 17.734375 12.53125 18.046875 C 13.550781 18.359375 14.507812 18.890625 15.40625 19.640625 C 16.507812 20.566406 17.265625 21.648438 17.671875 22.890625 C 18.085938 24.140625 18.113281 25.460938 17.75 26.859375 C 17.394531 28.265625 16.632812 29.660156 15.46875 31.046875 C 14.363281 32.359375 13.195312 33.296875 11.96875 33.859375 C 10.75 34.421875 9.539062 34.625 8.34375 34.46875 C 7.15625 34.3125 6.050781 33.800781 5.03125 32.9375 C 3.664062 31.789062 2.820312 30.382812 2.5 28.71875 C 2.1875 27.0625 2.421875 25.101562 3.203125 22.84375 L 2.890625 22.5 L -6.71875 22.015625 C -6.363281 22.765625 -5.859375 23.5 -5.203125 24.21875 C -4.554688 24.9375 -3.769531 25.6875 -2.84375 26.46875 L -1.96875 27.15625 L -5.21875 31 C -8.59375 28.164062 -10.753906 25.210938 -11.703125 22.140625 C -12.171875 22.222656 -12.53125 22.328125 -12.78125 22.453125 C -13.039062 22.585938 -13.273438 22.773438 -13.484375 23.015625 C -13.671875 23.253906 -13.8125 23.453125 -13.90625 23.609375 C -14 23.765625 -14.09375 23.957031 -14.1875 24.1875 L -14.46875 24.375 L -18.234375 22.171875 C -18.210938 21.847656 -18.078125 21.460938 -17.828125 21.015625 C -17.585938 20.566406 -17.269531 20.109375 -16.875 19.640625 C -16.195312 18.828125 -15.46875 18.226562 -14.6875 17.84375 C -13.914062 17.46875 -13.023438 17.234375 -12.015625 17.140625 L -11.734375 16.8125 C -11.753906 14.46875 -10.707031 12.039062 -8.59375 9.53125 Z M 7.140625 22.71875 C 6.796875 24.164062 6.691406 25.335938 6.828125 26.234375 C 6.960938 27.128906 7.414062 27.90625 8.1875 28.5625 C 8.863281 29.125 9.550781 29.363281 10.25 29.28125 C 10.945312 29.195312 11.578125 28.820312 12.140625 28.15625 C 12.710938 27.476562 12.972656 26.769531 12.921875 26.03125 C 12.867188 25.289062 12.5 24.628906 11.8125 24.046875 C 11.289062 23.609375 10.703125 23.300781 10.046875 23.125 C 9.390625 22.957031 8.421875 22.820312 7.140625 22.71875 Z M -5.171875 13.390625 C -6.054688 14.441406 -6.609375 15.515625 -6.828125 16.609375 L 4.453125 16.96875 C 4.578125 15.988281 4.476562 15.109375 4.15625 14.328125 C 3.84375 13.546875 3.304688 12.832031 2.546875 12.1875 C 1.753906 11.53125 0.90625 11.132812 0 11 C -0.894531 10.875 -1.789062 11.015625 -2.6875 11.421875 C -3.582031 11.828125 -4.410156 12.484375 -5.171875 13.390625 Z M -5.171875 13.390625 "/></g></g></g><g fill="#ffffff" fill-opacity="1"><g transform="translate(572.459002, 556.876998)"><g/></g></g><g fill="#ffffff" fill-opacity="1"><g transform="translate(566.292285, 563.878199)"><g><path d="M -3 2.765625 L 18.296875 25.78125 L 8.484375 34.859375 C 7.054688 36.179688 5.644531 37.070312 4.25 37.53125 C 2.851562 38 1.523438 38.050781 0.265625 37.6875 C -0.992188 37.332031 -2.144531 36.59375 -3.1875 35.46875 C -4.125 34.445312 -4.707031 33.316406 -4.9375 32.078125 C -5.164062 30.847656 -5.035156 29.570312 -4.546875 28.25 L -4.84375 27.90625 C -6.644531 28.875 -8.398438 29.222656 -10.109375 28.953125 C -11.816406 28.691406 -13.34375 27.832031 -14.6875 26.375 C -16.71875 24.175781 -17.625 21.863281 -17.40625 19.4375 C -17.1875 17.007812 -15.769531 14.585938 -13.15625 12.171875 Z M 0.921875 24.8125 C -1.191406 26.769531 -1.363281 28.707031 0.40625 30.625 C 1.3125 31.601562 2.242188 32.085938 3.203125 32.078125 C 4.160156 32.078125 5.175781 31.582031 6.25 30.59375 L 10.59375 26.578125 L 5.265625 20.796875 Z M -9.375 15.359375 C -11.882812 17.679688 -12.082031 19.976562 -9.96875 22.25 C -7.851562 24.539062 -5.539062 24.523438 -3.03125 22.203125 L 2.140625 17.421875 L -4.203125 10.578125 Z M -9.375 15.359375 "/></g></g></g><g fill="#ffffff" fill-opacity="1"><g transform="translate(544.574864, 583.712308)"><g><path d="M -2.671875 2.109375 L 12.015625 20.65625 L 7.5 24.234375 L 5.3125 21.46875 L 4.90625 21.6875 C 5.269531 23.082031 5.28125 24.3125 4.9375 25.375 C 4.59375 26.4375 3.898438 27.378906 2.859375 28.203125 C 1.804688 29.035156 0.859375 29.488281 0.015625 29.5625 L -2.359375 24.921875 L -2.078125 24.578125 C -1.679688 24.453125 -1.316406 24.304688 -0.984375 24.140625 C -0.660156 23.972656 -0.296875 23.726562 0.109375 23.40625 C 1.410156 22.382812 2.039062 21.144531 2 19.6875 C 1.957031 18.226562 1.140625 16.488281 -0.453125 14.46875 L -7.328125 5.796875 Z M -2.671875 2.109375 "/></g></g></g><g fill="#ffffff" fill-opacity="1"><g transform="translate(530.984203, 594.660025)"><g><path d="M -7.84375 4.84375 C -6.601562 3.988281 -5.363281 3.472656 -4.125 3.296875 C -2.894531 3.128906 -1.726562 3.316406 -0.625 3.859375 C 0.476562 4.410156 1.460938 5.3125 2.328125 6.5625 C 3.117188 7.71875 3.535156 8.859375 3.578125 9.984375 C 3.628906 11.109375 3.304688 12.273438 2.609375 13.484375 C 1.921875 14.703125 0.832031 16.019531 -0.65625 17.4375 C -1.695312 18.4375 -2.441406 19.253906 -2.890625 19.890625 C -3.347656 20.523438 -3.582031 21.054688 -3.59375 21.484375 C -3.613281 21.921875 -3.472656 22.359375 -3.171875 22.796875 C -2.742188 23.421875 -2.195312 23.742188 -1.53125 23.765625 C -0.863281 23.796875 -0.0234375 23.460938 0.984375 22.765625 C 2.066406 22.023438 2.929688 21.078125 3.578125 19.921875 C 4.222656 18.765625 4.632812 17.539062 4.8125 16.25 L 5.15625 16.015625 L 9.3125 17.703125 C 9.09375 19.484375 8.476562 21.171875 7.46875 22.765625 C 6.46875 24.359375 5.125 25.734375 3.4375 26.890625 C 0.851562 28.671875 -1.390625 29.40625 -3.296875 29.09375 C -5.203125 28.789062 -6.847656 27.632812 -8.234375 25.625 L -14.046875 17.15625 C -14.640625 16.28125 -15.320312 16.101562 -16.09375 16.625 C -16.382812 16.832031 -16.640625 17.082031 -16.859375 17.375 L -17.15625 17.5 L -19.859375 14.328125 C -19.710938 13.953125 -19.429688 13.539062 -19.015625 13.09375 C -18.609375 12.65625 -18.117188 12.242188 -17.546875 11.859375 C -16.378906 11.046875 -15.3125 10.640625 -14.34375 10.640625 C -13.382812 10.640625 -12.4375 11.023438 -11.5 11.796875 L -11.109375 11.5625 C -11.546875 8.875 -10.457031 6.632812 -7.84375 4.84375 Z M -6.90625 9.578125 C -8.039062 10.347656 -8.679688 11.347656 -8.828125 12.578125 C -8.984375 13.804688 -8.597656 15.097656 -7.671875 16.453125 L -6.3125 18.4375 L -5.9375 18.265625 C -5.789062 17.828125 -5.53125 17.367188 -5.15625 16.890625 C -4.789062 16.410156 -4.210938 15.785156 -3.421875 15.015625 C -2.484375 14.085938 -1.929688 13.25 -1.765625 12.5 C -1.597656 11.757812 -1.785156 10.992188 -2.328125 10.203125 C -2.898438 9.367188 -3.582031 8.898438 -4.375 8.796875 C -5.175781 8.703125 -6.019531 8.960938 -6.90625 9.578125 Z M -6.90625 9.578125 "/></g></g></g><g fill="#ffffff" fill-opacity="1"><g transform="translate(511.58954, 608.124859)"><g><path d="M -2.953125 1.6875 L 8.8125 22.21875 L 3.859375 25.0625 L 2.125 22.046875 L 1.6875 22.171875 C 1.738281 25.242188 0.332031 27.597656 -2.53125 29.234375 C -4.90625 30.597656 -7.015625 30.945312 -8.859375 30.28125 C -10.703125 29.625 -12.332031 28.0625 -13.75 25.59375 L -21.390625 12.25 L -16.234375 9.3125 L -8.953125 22.015625 C -8.171875 23.378906 -7.335938 24.203125 -6.453125 24.484375 C -5.566406 24.773438 -4.519531 24.578125 -3.3125 23.890625 C -1.84375 23.046875 -0.96875 21.90625 -0.6875 20.46875 C -0.40625 19.039062 -0.847656 17.304688 -2.015625 15.265625 L -8.109375 4.640625 Z M -2.953125 1.6875 "/></g></g></g><g fill="#ffffff" fill-opacity="1"><g transform="translate(488.81637, 621.259252)"><g><path d="M -10.796875 4.5 C -9.097656 3.707031 -7.40625 3.421875 -5.71875 3.640625 C -4.03125 3.867188 -2.429688 4.644531 -0.921875 5.96875 C 0.585938 7.289062 1.90625 9.171875 3.03125 11.609375 C 4.164062 14.066406 4.738281 16.300781 4.75 18.3125 C 4.757812 20.332031 4.28125 22.066406 3.3125 23.515625 C 2.351562 24.972656 0.992188 26.109375 -0.765625 26.921875 C -2.109375 27.535156 -3.375 27.835938 -4.5625 27.828125 C -5.757812 27.816406 -6.914062 27.476562 -8.03125 26.8125 L -8.40625 27.09375 L -3.34375 38.0625 L -8.734375 40.5625 L -22.640625 10.46875 L -17.25 7.96875 L -15.96875 10.75 L -15.5 10.640625 C -15.375 9.359375 -14.925781 8.1875 -14.15625 7.125 C -13.394531 6.0625 -12.273438 5.1875 -10.796875 4.5 Z M -10.453125 9.890625 C -11.960938 10.585938 -12.90625 11.679688 -13.28125 13.171875 C -13.664062 14.671875 -13.347656 16.519531 -12.328125 18.71875 C -11.304688 20.9375 -10.101562 22.378906 -8.71875 23.046875 C -7.332031 23.722656 -5.882812 23.710938 -4.375 23.015625 C -2.78125 22.273438 -1.804688 21.179688 -1.453125 19.734375 C -1.109375 18.296875 -1.460938 16.441406 -2.515625 14.171875 C -3.554688 11.910156 -4.738281 10.445312 -6.0625 9.78125 C -7.394531 9.113281 -8.859375 9.148438 -10.453125 9.890625 Z M -10.453125 9.890625 "/></g></g></g><g fill="#ffffff" fill-opacity="1"><g transform="translate(464.209906, 632.549183)"><g><path d="M -10.53125 3.421875 C -9.019531 2.859375 -7.566406 2.519531 -6.171875 2.40625 C -4.785156 2.300781 -3.53125 2.394531 -2.40625 2.6875 C -1.28125 2.976562 -0.359375 3.445312 0.359375 4.09375 L -1.484375 8.578125 L -1.90625 8.734375 C -3.007812 8.003906 -4.15625 7.582031 -5.34375 7.46875 C -6.53125 7.351562 -7.71875 7.515625 -8.90625 7.953125 C -9.988281 8.359375 -10.734375 8.851562 -11.140625 9.4375 C -11.554688 10.03125 -11.628906 10.6875 -11.359375 11.40625 C -11.148438 11.96875 -10.773438 12.367188 -10.234375 12.609375 C -9.703125 12.847656 -8.945312 12.90625 -7.96875 12.78125 L -4.78125 12.40625 C -2.382812 12.113281 -0.484375 12.316406 0.921875 13.015625 C 2.335938 13.722656 3.351562 14.90625 3.96875 16.5625 C 4.476562 17.945312 4.566406 19.28125 4.234375 20.5625 C 3.910156 21.851562 3.207031 23.003906 2.125 24.015625 C 1.039062 25.023438 -0.347656 25.84375 -2.046875 26.46875 C -4.035156 27.207031 -5.796875 27.53125 -7.328125 27.4375 C -8.859375 27.351562 -10.164062 26.960938 -11.25 26.265625 L -9.484375 21.9375 L -9.078125 21.796875 C -8.203125 22.273438 -7.316406 22.53125 -6.421875 22.5625 C -5.535156 22.59375 -4.617188 22.429688 -3.671875 22.078125 C -1.472656 21.265625 -0.625 20.175781 -1.125 18.8125 C -1.34375 18.238281 -1.722656 17.84375 -2.265625 17.625 C -2.804688 17.414062 -3.632812 17.390625 -4.75 17.546875 L -7.703125 17.953125 C -10.140625 18.304688 -12.070312 18.140625 -13.5 17.453125 C -14.9375 16.773438 -15.988281 15.539062 -16.65625 13.75 C -17.175781 12.34375 -17.285156 10.972656 -16.984375 9.640625 C -16.679688 8.304688 -15.984375 7.101562 -14.890625 6.03125 C -13.796875 4.96875 -12.34375 4.097656 -10.53125 3.421875 Z M -10.53125 3.421875 "/></g></g></g><g fill="#ffffff" fill-opacity="1"><g transform="translate(444.491633, 639.728021)"><g/></g></g><g fill="#ffffff" fill-opacity="1"><g transform="translate(435.166753, 642.689912)"><g><path d="M -5.875 1.421875 C -5.144531 1.222656 -4.457031 1.191406 -3.8125 1.328125 C -3.175781 1.472656 -2.640625 1.765625 -2.203125 2.203125 C -1.765625 2.648438 -1.453125 3.203125 -1.265625 3.859375 C -1.085938 4.523438 -1.070312 5.160156 -1.21875 5.765625 C -1.375 6.367188 -1.6875 6.898438 -2.15625 7.359375 C -2.632812 7.816406 -3.238281 8.144531 -3.96875 8.34375 C -4.707031 8.550781 -5.394531 8.582031 -6.03125 8.4375 C -6.675781 8.300781 -7.21875 8.007812 -7.65625 7.5625 C -8.09375 7.125 -8.40625 6.570312 -8.59375 5.90625 C -8.875 4.90625 -8.769531 3.984375 -8.28125 3.140625 C -7.789062 2.304688 -6.988281 1.734375 -5.875 1.421875 Z M -5.875 1.421875 "/></g></g></g><g fill="#ffffff" fill-opacity="1"><g transform="translate(424.042469, 645.763081)"><g/></g></g></svg>