<?xml version="1.0" encoding="utf-8"?>
<!-- Generator: Adobe Illustrator 26.0.1, SVG Export Plug-In . SVG Version: 6.00 Build 0)  -->
<svg version="1.1" id="Layer_1" xmlns="http://www.w3.org/2000/svg" xmlns:xlink="http://www.w3.org/1999/xlink" x="0px" y="0px"
	 viewBox="0 0 293 293" style="enable-background:new 0 0 293 293;" xml:space="preserve">
<style type="text/css">
	.st0{fill:#FFFFFF;}
</style>
<path class="st0" d="M56.1,48.6l1.9,2.5l-3.5,3.9L65,68.6l-2.7,3L51.8,58L48.2,62l-1.9-2.5L56.1,48.6z"/>
<path class="st0" d="M72.3,60.4c-1.1,0.2-2.3,0.1-3.4-0.3c-1.1-0.4-2.1-1.1-2.9-2.2C65,56.5,64.3,55,64,53.3
	c-0.3-1.7-0.1-3.3,0.5-4.9c0.6-1.6,1.6-3,3-4.1c1-0.9,2.2-1.4,3.3-1.7c1.2-0.2,2.3-0.2,3.4,0.3c1.1,0.4,2.1,1.1,2.9,2.1
	c1.1,1.4,1.9,2.9,2.1,4.6c0.3,1.7,0.1,3.3-0.5,4.9c-0.6,1.6-1.6,3-3,4.1C74.6,59.6,73.5,60.1,72.3,60.4z M75.4,53.4
	c0.2-0.9,0.2-1.9,0-2.9c-0.2-1-0.7-1.9-1.3-2.6c-0.7-0.9-1.5-1.4-2.4-1.4c-0.9-0.1-1.7,0.2-2.5,0.8c-0.7,0.6-1.3,1.4-1.5,2.3
	c-0.2,0.9-0.2,1.8,0.1,2.8c0.3,1,0.7,1.9,1.4,2.7c0.7,0.9,1.5,1.4,2.3,1.4c0.9,0.1,1.7-0.2,2.4-0.8C74.6,55.1,75.1,54.4,75.4,53.4z"
	/>
<path class="st0" d="M83.2,34.1c0.6-0.9,1.4-1.7,2.4-2.3c1-0.6,2-0.9,3.1-1c1,0,2,0.2,2.9,0.8c0.9,0.6,1.7,1.4,2.4,2.5
	c0.3,0.5,0.6,1.1,0.8,1.6c0.6,1.5,0.8,3.1,0.7,4.6c-0.1,1.5-0.5,2.9-1.2,4.1c-0.7,1.2-1.6,2.2-2.8,2.8c-1,0.6-2,0.9-2.9,0.9
	c-0.9,0-1.8-0.2-2.5-0.6l3.6,9.3L86.4,59l-8.6-22.2l3.5-2.1l0.8,2.2C82.2,36,82.6,35.1,83.2,34.1z M90.8,37c-0.6-1-1.3-1.5-2.2-1.7
	c-0.9-0.2-1.8,0-2.6,0.5c-0.6,0.4-1.1,0.9-1.5,1.6c-0.4,0.7-0.7,1.4-0.7,2.4c-0.1,0.9,0.1,1.8,0.4,2.7c0.2,0.5,0.4,0.8,0.5,1
	c0.6,1,1.3,1.5,2.2,1.7c0.9,0.2,1.8,0,2.6-0.5c0.6-0.4,1.1-0.9,1.6-1.6c0.4-0.7,0.7-1.5,0.7-2.4c0.1-0.9-0.1-1.8-0.4-2.7
	C91.1,37.5,91,37.3,90.8,37z"/>
<path class="st0" d="M115.2,15.6l0.5,3.1l-7.9,2.6l0.8,5.3l6-2l0.5,3.1l-6,2.1l1.3,8.5l-3.8,1.3l-2.9-20.1L115.2,15.6z"/>
<path class="st0" d="M125.7,18.3c0.8-0.7,1.7-1.2,2.7-1.4l0.2,4.3l-1,0.2c-1.1,0.2-2.1,0.7-2.6,1.4c-0.6,0.6-0.9,1.6-1,2.9l0.3,8.6
	l-3.9,0.9l-0.5-16.1l3.9-0.9l0.1,2.9C124.4,19.9,125,19,125.7,18.3z"/>
<path class="st0" d="M144.3,17c1.3,1,2,2.5,2.2,4.3c0.1,0.6,0.1,1.1,0,1.7c-0.1,0.6-0.2,1.1-0.2,1.5l-11.6,1c0,0.1,0,0.3,0,0.6
	c0.1,1,0.5,1.7,1.1,2.2c0.6,0.5,1.4,0.7,2.3,0.6c0.8-0.1,1.5-0.3,2-0.7c0.6-0.4,1-0.9,1.3-1.5l4.3-0.4c-0.6,1.6-1.5,2.9-2.9,4
	c-1.4,1.1-3,1.7-4.9,1.9c-2,0.2-3.7-0.2-5-1.3c-1.3-1-2.1-2.5-2.2-4.5c-0.1-0.6-0.1-1.2,0-1.8c0.2-1.7,0.6-3.1,1.4-4.5
	c0.8-1.3,1.8-2.3,3-3.1c1.3-0.8,2.6-1.3,4.2-1.4C141.4,15.6,143.1,16,144.3,17z M142.4,21.7c-0.1-0.9-0.5-1.6-1.1-2.1
	c-0.6-0.5-1.4-0.6-2.4-0.6c-1,0.1-1.9,0.5-2.6,1.2c-0.7,0.7-1.2,1.6-1.4,2.7l7.6-0.6C142.5,22,142.5,21.9,142.4,21.7z"/>
<path class="st0" d="M163.4,17.6c1.1,1.2,1.6,2.7,1.5,4.6c-0.1,0.6-0.1,1.1-0.2,1.6c-0.2,0.6-0.3,1-0.5,1.5l-11.6-0.7
	c0,0.1-0.1,0.3-0.1,0.6c-0.1,1,0.2,1.8,0.7,2.4c0.6,0.6,1.3,0.9,2.2,1c0.8,0.1,1.5-0.1,2.1-0.4c0.6-0.3,1.1-0.7,1.5-1.3l4.3,0.2
	c-0.8,1.5-1.9,2.7-3.5,3.5c-1.5,0.9-3.3,1.3-5.1,1.1c-2-0.1-3.6-0.8-4.7-2c-1.1-1.2-1.7-2.8-1.5-4.7c0.1-0.6,0.1-1.1,0.3-1.8
	c0.4-1.6,1-3,2-4.2c1-1.2,2.1-2.1,3.5-2.6c1.4-0.6,2.8-0.9,4.4-0.7C160.7,15.8,162.2,16.5,163.4,17.6z M160.8,22
	c0.1-0.9-0.2-1.7-0.7-2.2c-0.6-0.6-1.3-0.9-2.3-0.9c-1-0.1-1.9,0.2-2.7,0.8c-0.9,0.6-1.4,1.4-1.8,2.5l7.6,0.5
	C160.8,22.4,160.8,22.1,160.8,22z"/>
<path class="st0" d="M176.2,12.9L169,33.1l-4-0.7l7.3-20.2L176.2,12.9z"/>
<path class="st0" d="M177.8,22.3c1.1-1,2.4-1.6,3.8-1.9c1.4-0.3,2.7-0.3,4,0.1c1.1,0.3,2,0.9,2.7,1.5c0.6,0.7,1,1.4,1.2,2.2l1-2.1
	l3.9,1.1l-7.1,14.4l-3.9-1.1l1-2.1c-0.8,0.5-1.8,0.9-2.9,1.1c-1.1,0.2-2.2,0.1-3.4-0.2c-1.1-0.3-2.1-0.9-2.7-1.6
	c-0.7-0.7-1.2-1.7-1.4-2.7c-0.2-1.1-0.1-2.2,0.2-3.4c0.2-0.6,0.4-1.1,0.7-1.7C175.7,24.4,176.7,23.2,177.8,22.3z M187.4,28.4
	c0.3-1.1,0.2-2-0.2-2.8c-0.5-0.8-1.1-1.3-2.1-1.6c-0.7-0.2-1.4-0.2-2.2-0.1c-0.7,0.2-1.5,0.5-2.2,1c-0.7,0.5-1.3,1.2-1.7,2.1
	c-0.2,0.3-0.3,0.6-0.3,1c-0.3,1.1-0.2,2.1,0.2,2.9c0.4,0.8,1.1,1.4,2.1,1.7c0.7,0.2,1.5,0.2,2.2,0.1c0.7-0.2,1.5-0.5,2.2-1
	c0.7-0.5,1.3-1.3,1.7-2.1C187.1,28.9,187.3,28.6,187.4,28.4z"/>
<path class="st0" d="M210.6,31.9c0.5,1.2,0.3,2.6-0.3,4c-0.3,0.6-0.5,1-0.9,1.4l-5.5,7.7l-3.6-1.7l5.1-7.3c0.2-0.3,0.3-0.6,0.5-0.9
	c0.4-0.9,0.5-1.6,0.2-2.3c-0.2-0.7-0.8-1.2-1.7-1.6c-1-0.5-1.9-0.6-2.9-0.3c-1,0.2-1.8,0.9-2.5,1.8l-5.3,7.4l-3.7-1.7l9.3-13.1
	l3.7,1.7l-1.1,1.6c0.9-0.3,1.8-0.5,2.7-0.5c1,0.1,1.9,0.2,2.8,0.7C209.2,29.8,210.1,30.7,210.6,31.9z"/>
<path class="st0" d="M215.3,37.6c1.4-0.5,2.9-0.7,4.3-0.5c1.5,0.2,2.8,0.7,4.1,1.5c1.6,1.1,2.6,2.3,3,3.8c0.4,1.4,0.1,2.9-0.8,4.5
	l-3.6-2.4c0.3-0.6,0.3-1.3,0.2-1.8c-0.2-0.6-0.6-1.1-1.3-1.5c-1-0.6-2-0.9-3.1-0.6c-1.1,0.2-2.2,0.9-3.3,2c-0.4,0.4-0.7,0.7-0.9,1
	c-0.6,0.9-0.9,1.7-0.7,2.5c0.1,0.8,0.6,1.4,1.4,1.9c1.3,0.9,2.7,1,4.2,0.2l3.6,2.4c-1.6,1-3.3,1.5-5,1.5c-1.8,0-3.5-0.5-5.1-1.6
	c-1.7-1.1-2.7-2.5-3-4.1c-0.3-1.6,0-3.2,1.1-4.8c0.3-0.5,0.7-1,1.2-1.4C212.6,39,213.9,38.1,215.3,37.6z"/>
<path class="st0" d="M235.8,48.4l-12.4,10.3l-3.1-2.6l12.4-10.3L235.8,48.4z M235,44.5c-0.1-0.5,0.1-1,0.5-1.4
	c0.5-0.6,1.1-0.9,1.9-0.9c0.8-0.1,1.5,0.2,2.1,0.7c0.5,0.4,0.7,0.9,0.8,1.4c0.1,0.5-0.1,1-0.5,1.4c-0.5,0.6-1.1,0.9-1.9,1
	c-0.8,0.1-1.5-0.2-2.1-0.7C235.3,45.4,235,45,235,44.5z"/>
<path class="st0" d="M247.6,61.7c0,1.3-0.6,2.5-1.8,3.7c-0.5,0.4-0.9,0.7-1.3,1l-7.9,5.2l-2.7-2.9l7.4-4.9c0.3-0.2,0.6-0.4,0.8-0.6
	c0.7-0.6,1-1.3,1-2.1c0-0.7-0.3-1.4-1-2.1c-0.7-0.8-1.6-1.2-2.6-1.3c-1-0.1-2,0.2-3,0.8l-7.6,5l-2.8-2.9l13.4-8.9l2.8,2.9l-1.7,1.1
	c0.9,0,1.8,0.2,2.7,0.6c0.9,0.4,1.7,0.9,2.3,1.6C247,59.2,247.6,60.5,247.6,61.7z"/>
<path class="st0" d="M258.3,75.1c0.1,1-0.1,1.8-0.5,2.5l2.1-0.9l2.3,3.3l-14.8,6.7c-1.4,0.6-2.7,0.9-4.2,0.9c-1.4,0-2.7-0.3-4.1-1
	c-1.3-0.7-2.4-1.7-3.4-3.1c-1.3-1.8-1.8-3.6-1.7-5.2c0.2-1.6,1-2.9,2.6-3.8l2.2,3.3c-0.6,0.5-0.9,1.1-0.9,1.8c0,0.7,0.3,1.5,0.9,2.3
	c0.7,1,1.5,1.6,2.6,1.9c1,0.3,2.2,0.2,3.5-0.4l2.3-1c-1-0.1-1.9-0.5-2.9-1c-1-0.5-1.8-1.3-2.4-2.2c-0.6-1-1-1.9-1.1-3
	c-0.1-1,0.1-2.1,0.6-3c0.5-1,1.3-1.8,2.3-2.5c0.5-0.3,1-0.6,1.7-0.9c1.5-0.7,3-1,4.5-1c1.5,0,2.9,0.3,4.1,1s2.2,1.5,3,2.6
	C257.9,73.2,258.2,74.2,258.3,75.1z M253.5,79.5c0.9-0.6,1.5-1.4,1.6-2.3c0.2-0.9-0.1-1.8-0.6-2.6c-0.4-0.6-1-1.1-1.7-1.5
	c-0.7-0.3-1.5-0.6-2.3-0.6c-0.9-0.1-1.7,0.2-2.6,0.6c-0.3,0.2-0.6,0.3-0.9,0.5c-1,0.6-1.5,1.4-1.7,2.3c-0.2,0.9,0,1.8,0.6,2.6
	c0.4,0.6,1,1.1,1.7,1.5c0.7,0.4,1.5,0.6,2.3,0.6c0.9,0,1.7-0.2,2.6-0.6C253,79.8,253.3,79.6,253.5,79.5z"/>
<path class="st0" d="M260.9,106.4L258,99l-4.2-0.5l-1.5-3.9l22.5,2.9l1.7,4.3l-17.3,10.6l-1.5-3.9L260.9,106.4z M263.6,104.8
	l7.4-4.3l-9.5-1.1L263.6,104.8z"/>
<path class="st0" d="M277.2,123c-0.3,0.9-0.7,1.6-1.4,2.1l2.3-0.1l0.8,3.9l-16.2,0.4c-1.5,0-2.9-0.2-4.2-0.8
	c-1.3-0.6-2.4-1.4-3.3-2.5c-0.9-1.1-1.5-2.5-1.9-4.2c-0.5-2.2-0.3-4,0.5-5.4c0.8-1.4,2.1-2.3,3.9-2.5l0.8,3.9
	c-0.7,0.2-1.2,0.7-1.5,1.4c-0.3,0.7-0.3,1.5-0.2,2.5c0.2,1.1,0.8,2.1,1.6,2.7c0.9,0.7,2,1,3.4,1l2.5-0.1c-0.9-0.5-1.6-1.1-2.3-2
	c-0.7-0.9-1.1-1.9-1.4-3c-0.2-1.1-0.2-2.2,0.2-3.2c0.3-1,0.9-1.8,1.8-2.5c0.9-0.7,1.9-1.1,3.1-1.4c0.6-0.1,1.2-0.2,1.8-0.2
	c1.6-0.1,3.1,0.2,4.5,0.8c1.4,0.6,2.5,1.4,3.4,2.5c0.9,1.1,1.5,2.3,1.7,3.6C277.5,121,277.5,122.1,277.2,123z M271.1,125.1
	c1.1-0.2,1.9-0.7,2.4-1.5c0.5-0.7,0.6-1.7,0.5-2.6c-0.2-0.7-0.5-1.4-1-2c-0.5-0.6-1.1-1.1-1.9-1.5c-0.8-0.3-1.7-0.5-2.6-0.5
	c-0.3,0-0.7,0.1-1,0.1c-1.1,0.2-1.9,0.7-2.5,1.5c-0.5,0.7-0.7,1.7-0.5,2.6c0.2,0.7,0.5,1.4,1,2c0.5,0.6,1.1,1.1,1.9,1.5
	c0.8,0.3,1.7,0.5,2.6,0.5C270.6,125.2,270.9,125.2,271.1,125.1z"/>
<path class="st0" d="M278.4,146.4c-1.1,1.3-2.5,1.9-4.4,1.9c-0.6,0-1.1,0-1.7-0.1c-0.6-0.1-1.1-0.2-1.5-0.3l-0.5-11.6
	c-0.1,0-0.3,0-0.6,0c-1,0.1-1.8,0.3-2.3,1c-0.5,0.6-0.8,1.4-0.7,2.3c0.1,0.8,0.2,1.5,0.6,2.1c0.4,0.6,0.9,1,1.4,1.4l0.2,4.3
	c-1.5-0.6-2.9-1.7-3.9-3.1c-1-1.4-1.6-3.1-1.7-5c-0.1-2,0.4-3.7,1.5-4.9c1.1-1.3,2.6-1.9,4.6-2.1c0.6,0,1.2,0,1.8,0.1
	c1.7,0.2,3.1,0.7,4.4,1.5c1.3,0.9,2.3,1.9,3,3.1c0.7,1.3,1.1,2.7,1.2,4.3C280,143.5,279.4,145.2,278.4,146.4z M273.8,144.3
	c0.9-0.1,1.6-0.3,2.1-1c0.5-0.6,0.7-1.4,0.7-2.3c-0.1-1-0.4-1.9-1.1-2.7c-0.7-0.7-1.5-1.3-2.7-1.5l0.3,7.6
	C273.4,144.3,273.7,144.3,273.8,144.3z"/>
<path class="st0" d="M277.1,166.4c-1,0.9-2.3,1.2-3.9,1c-0.6-0.1-1.1-0.2-1.7-0.3l-9-2.6l0.4-3.9l8.5,2.5c0.3,0.1,0.7,0.2,1,0.2
	c1,0.1,1.7-0.1,2.2-0.5c0.6-0.5,0.9-1.1,1-2.1c0.1-1.1-0.1-2-0.7-2.8c-0.6-0.8-1.4-1.4-2.6-1.8l-8.8-2.5l0.5-4l15.5,4.5l-0.5,4
	l-1.9-0.6c0.6,0.7,1,1.5,1.3,2.5c0.3,0.9,0.4,1.9,0.3,2.9C278.7,164.3,278.1,165.5,277.1,166.4z"/>
<path class="st0" d="M273.4,172.7c1,1.1,1.6,2.5,1.9,3.9c0.3,1.4,0.3,2.9-0.1,4.3c-0.5,1.9-1.4,3.3-2.6,4.1
	c-1.2,0.9-2.7,1.1-4.5,0.7l1.1-4.2c0.7,0.1,1.3-0.1,1.8-0.5c0.5-0.3,0.9-0.9,1-1.7c0.3-1.1,0.1-2.2-0.5-3.1c-0.6-1-1.6-1.8-3-2.5
	c-0.5-0.2-0.9-0.4-1.3-0.5c-1-0.3-1.9-0.2-2.6,0.1c-0.7,0.3-1.1,1-1.4,1.9c-0.4,1.5,0,2.9,1.2,4l-1.1,4.2c-1.5-1.1-2.5-2.6-3.1-4.3
	c-0.6-1.7-0.6-3.5-0.2-5.3c0.5-1.9,1.5-3.3,2.9-4.2c1.4-0.9,3-1,4.9-0.6c0.6,0.2,1.1,0.3,1.8,0.6
	C271.1,170.6,272.4,171.5,273.4,172.7z"/>
<path class="st0" d="M270.2,194.7l-11-2.5l7.8,10l-1.7,3.9l-16-22l1.7-3.9l5.4,7.6l15.6,2.7L270.2,194.7z"/>
<path class="st0" d="M247.5,205.6c0.5-0.1,1-0.1,1.5,0.3c0.6,0.4,1,1,1.2,1.8c0.1,0.8,0,1.5-0.4,2.2c-0.3,0.5-0.7,0.9-1.3,1
	c-0.5,0.1-1,0-1.5-0.3c-0.6-0.4-1-1-1.2-1.8c-0.2-0.7,0-1.5,0.4-2.2C246.6,206,247,205.7,247.5,205.6z"/>
<path class="st0" d="M242.6,243.2l-1.9-2.5l3.5-3.9l-10.5-13.6l2.7-3l10.5,13.5l3.6-3.9l1.9,2.5L242.6,243.2z"/>
<path class="st0" d="M226.4,231.5c1.1-0.2,2.3-0.1,3.4,0.3c1.1,0.4,2.1,1.1,2.9,2.2c1.1,1.4,1.8,2.9,2.1,4.6
	c0.3,1.7,0.1,3.3-0.5,4.9c-0.6,1.6-1.6,3-3,4.1c-1,0.9-2.2,1.4-3.3,1.7c-1.2,0.2-2.3,0.2-3.4-0.3c-1.1-0.4-2.1-1.1-2.9-2.1
	c-1.1-1.4-1.9-2.9-2.1-4.6c-0.3-1.7-0.1-3.3,0.5-4.9c0.6-1.6,1.6-3,3-4.1C224.2,232.3,225.2,231.7,226.4,231.5z M223.4,238.4
	c-0.2,0.9-0.2,1.9,0,2.9c0.2,1,0.7,1.9,1.3,2.6c0.7,0.9,1.5,1.4,2.4,1.4c0.9,0.1,1.7-0.2,2.5-0.8c0.7-0.6,1.3-1.4,1.5-2.3
	s0.2-1.8-0.1-2.8c-0.3-1-0.7-1.9-1.4-2.7c-0.7-0.9-1.5-1.4-2.3-1.4c-0.9-0.1-1.7,0.2-2.4,0.8C224.2,236.7,223.6,237.5,223.4,238.4z"
	/>
<path class="st0" d="M215.4,257.7c-0.6,0.9-1.4,1.7-2.4,2.3c-1,0.6-2.1,0.9-3.1,0.9s-2-0.2-2.9-0.8c-0.9-0.6-1.7-1.4-2.3-2.5
	c-0.3-0.5-0.6-1.1-0.8-1.7c-0.6-1.5-0.8-3.1-0.7-4.6c0.1-1.5,0.5-2.9,1.2-4.1c0.7-1.2,1.7-2.2,2.8-2.8c1-0.6,2-0.9,2.9-0.9
	s1.8,0.2,2.5,0.6l-3.5-9.3l3.5-2.1l8.3,22.3l-3.5,2.1l-0.8-2.2C216.4,255.9,216,256.8,215.4,257.7z M207.8,254.8
	c0.6,1,1.3,1.5,2.2,1.8c0.9,0.2,1.8,0.1,2.6-0.5c0.6-0.3,1.1-0.9,1.5-1.5c0.4-0.7,0.7-1.4,0.7-2.3c0.1-0.9-0.1-1.8-0.4-2.7
	c-0.2-0.5-0.3-0.8-0.5-1c-0.6-1-1.3-1.5-2.2-1.8c-0.9-0.2-1.8-0.1-2.6,0.5c-0.6,0.4-1.1,0.9-1.6,1.6c-0.4,0.7-0.7,1.5-0.7,2.3
	c-0.1,0.9,0.1,1.8,0.4,2.7C207.5,254.2,207.7,254.5,207.8,254.8z"/>
<path class="st0" d="M183.5,276.2l-0.5-3.1l7.9-2.6l-0.8-5.3l-6,2l-0.5-3.1l6.1-2l-1.3-8.5l3.8-1.3l3,20.1L183.5,276.2z"/>
<path class="st0" d="M173,273.5c-0.8,0.7-1.7,1.2-2.7,1.4l-0.2-4.3l1-0.2c1.1-0.2,2-0.7,2.6-1.4c0.6-0.6,0.9-1.6,1-2.9l-0.3-8.6
	l3.9-0.9l0.6,16.1l-3.9,0.9l-0.1-2.9C174.4,271.9,173.8,272.9,173,273.5z"/>
<path class="st0" d="M154.4,274.9c-1.3-1-2-2.5-2.2-4.3c-0.1-0.6-0.1-1.1,0-1.7c0.1-0.6,0.2-1.1,0.2-1.5l11.6-1c0-0.1,0-0.3,0-0.6
	c-0.1-1-0.5-1.7-1.1-2.2c-0.6-0.5-1.4-0.7-2.3-0.6c-0.8,0.1-1.5,0.3-2,0.7c-0.5,0.4-1,0.9-1.3,1.5l-4.3,0.4c0.6-1.6,1.5-2.9,2.9-4
	c1.4-1.1,3-1.7,4.9-1.9c2-0.2,3.7,0.2,5,1.3c1.3,1.1,2.1,2.5,2.2,4.5c0.1,0.6,0.1,1.2,0,1.8c-0.2,1.7-0.6,3.1-1.4,4.5
	c-0.8,1.3-1.8,2.3-3,3.1c-1.3,0.8-2.6,1.3-4.2,1.4C157.3,276.3,155.7,275.9,154.4,274.9z M156.3,270.2c0.1,0.9,0.5,1.6,1.1,2.1
	c0.6,0.5,1.4,0.6,2.4,0.6c1-0.1,1.9-0.5,2.6-1.2c0.7-0.7,1.2-1.6,1.4-2.7l-7.6,0.6C156.3,269.8,156.3,270,156.3,270.2z"/>
<path class="st0" d="M135.3,274.2c-1.1-1.2-1.6-2.7-1.5-4.6c0.1-0.6,0.1-1.1,0.2-1.6c0.2-0.6,0.3-1,0.5-1.5l11.6,0.7
	c0-0.1,0.1-0.3,0.1-0.6c0.1-1-0.2-1.8-0.7-2.4c-0.6-0.6-1.3-0.9-2.2-1c-0.8-0.1-1.5,0.1-2.1,0.4c-0.6,0.3-1.1,0.7-1.5,1.3l-4.3-0.2
	c0.8-1.5,1.9-2.7,3.5-3.5c1.5-0.9,3.3-1.3,5.1-1.1c2,0.1,3.6,0.8,4.8,2c1.1,1.2,1.7,2.8,1.5,4.7c-0.1,0.6-0.1,1.1-0.3,1.8
	c-0.4,1.6-1,3-2,4.2c-1,1.2-2.1,2.1-3.5,2.6c-1.4,0.6-2.8,0.9-4.3,0.7C138,276.1,136.5,275.4,135.3,274.2z M137.9,269.8
	c-0.1,0.9,0.2,1.7,0.7,2.2c0.6,0.6,1.3,0.9,2.3,0.9c1,0.1,1.9-0.2,2.7-0.8c0.9-0.6,1.4-1.4,1.8-2.5l-7.6-0.5
	C138,269.5,137.9,269.7,137.9,269.8z"/>
<path class="st0" d="M122.5,279l7.2-20.3l4,0.7l-7.2,20.3L122.5,279z"/>
<path class="st0" d="M120.9,269.7c-1.1,1-2.4,1.6-3.8,1.9c-1.4,0.3-2.7,0.3-4-0.1c-1.1-0.3-2-0.9-2.7-1.5c-0.6-0.7-1-1.4-1.2-2.2
	l-1,2.1l-3.9-1.1l7.1-14.4l3.9,1.1l-1,2.1c0.8-0.5,1.8-0.9,2.9-1.1c1.1-0.2,2.2-0.1,3.4,0.2c1.1,0.3,2.1,0.9,2.7,1.6
	c0.7,0.7,1.2,1.7,1.4,2.7c0.2,1.1,0.1,2.2-0.2,3.4c-0.2,0.6-0.4,1.1-0.7,1.7C123,267.5,122.1,268.7,120.9,269.7z M111.4,263.5
	c-0.3,1.1-0.2,2,0.2,2.8c0.5,0.8,1.1,1.3,2.1,1.6c0.7,0.2,1.4,0.2,2.2,0.1c0.7-0.2,1.5-0.5,2.2-1c0.7-0.5,1.3-1.2,1.7-2.1
	c0.2-0.3,0.3-0.6,0.3-1c0.3-1.1,0.2-2.1-0.2-2.9c-0.5-0.8-1.1-1.4-2.1-1.7c-0.7-0.2-1.5-0.2-2.2-0.1c-0.8,0.2-1.5,0.5-2.2,1
	c-0.7,0.5-1.3,1.3-1.7,2.1C111.6,263,111.4,263.3,111.4,263.5z"/>
<path class="st0" d="M88.1,259.9c-0.5-1.2-0.3-2.6,0.3-4c0.3-0.6,0.5-1,0.9-1.4l5.5-7.7l3.6,1.7l-5.2,7.3c-0.2,0.3-0.3,0.6-0.5,0.9
	c-0.4,0.9-0.5,1.6-0.2,2.3c0.2,0.7,0.8,1.2,1.7,1.6c1,0.5,1.9,0.6,2.9,0.3c1-0.2,1.8-0.9,2.5-1.8l5.3-7.4l3.7,1.7l-9.3,13.1
	l-3.7-1.7l1.1-1.6c-0.9,0.3-1.8,0.5-2.7,0.5c-1-0.1-1.9-0.2-2.8-0.7C89.6,262,88.6,261.1,88.1,259.9z"/>
<path class="st0" d="M83.4,254.3c-1.4,0.5-2.9,0.7-4.3,0.5c-1.5-0.2-2.8-0.7-4.1-1.5c-1.6-1.1-2.6-2.3-3-3.8
	c-0.4-1.4-0.1-2.9,0.7-4.5l3.6,2.4c-0.3,0.6-0.3,1.3-0.2,1.8c0.2,0.6,0.6,1.1,1.3,1.5c1,0.6,2,0.9,3.1,0.6c1.1-0.2,2.2-0.9,3.3-2
	c0.4-0.4,0.7-0.7,0.9-1c0.6-0.9,0.9-1.7,0.7-2.5c-0.1-0.8-0.6-1.4-1.4-1.9c-1.3-0.9-2.7-1-4.2-0.2l-3.6-2.4c1.6-1,3.3-1.5,5-1.5
	c1.8,0,3.5,0.5,5.1,1.6c1.7,1.1,2.7,2.5,3,4.1c0.3,1.6,0,3.2-1.1,4.8c-0.3,0.5-0.7,1-1.2,1.4C86.1,252.9,84.8,253.7,83.4,254.3z"/>
<path class="st0" d="M63.7,247.4c0.1,0.5-0.1,1-0.5,1.4c-0.5,0.6-1.1,0.9-1.9,0.9c-0.8,0.1-1.5-0.2-2.1-0.7
	c-0.5-0.4-0.7-0.9-0.8-1.4c-0.1-0.5,0.1-1,0.5-1.4c0.5-0.6,1.1-0.9,1.9-1c0.8-0.1,1.5,0.2,2.1,0.7C63.5,246.4,63.7,246.9,63.7,247.4
	z M62.9,243.5l12.4-10.3l3.1,2.6L66,246.1L62.9,243.5z"/>
<path class="st0" d="M51.1,230.1c0-1.3,0.6-2.5,1.8-3.7c0.5-0.4,0.9-0.7,1.3-1l7.9-5.2l2.7,2.9l-7.4,4.9c-0.3,0.2-0.6,0.4-0.8,0.6
	c-0.7,0.6-1,1.3-1,2.1c0,0.7,0.3,1.4,1,2.1c0.7,0.8,1.6,1.2,2.6,1.3c1,0.1,2-0.2,3-0.8l7.6-5l2.8,2.9L59.1,240l-2.8-2.9l1.7-1.1
	c-0.9,0-1.8-0.2-2.7-0.6c-0.9-0.4-1.7-0.9-2.3-1.6C51.7,232.6,51.2,231.4,51.1,230.1z"/>
<path class="st0" d="M40.5,216.7c-0.1-1,0.1-1.8,0.5-2.5l-2.1,0.9l-2.3-3.3l14.8-6.7c1.4-0.6,2.7-0.9,4.2-0.9s2.7,0.3,4.1,1
	c1.3,0.7,2.4,1.7,3.4,3.1c1.3,1.8,1.8,3.6,1.7,5.2c-0.2,1.6-1,2.9-2.6,3.8l-2.2-3.3c0.6-0.5,0.9-1.1,0.9-1.8c0-0.7-0.3-1.5-0.9-2.3
	c-0.7-1-1.5-1.6-2.6-1.9c-1-0.3-2.2-0.2-3.5,0.4l-2.3,1c1,0.1,1.9,0.5,2.9,1c1,0.5,1.8,1.3,2.4,2.2c0.6,1,1,1.9,1.1,3
	c0.1,1-0.1,2.1-0.6,3c-0.5,1-1.3,1.8-2.3,2.5c-0.5,0.3-1,0.6-1.7,0.9c-1.5,0.7-3,1-4.5,1s-2.9-0.3-4.1-1c-1.3-0.6-2.2-1.5-3-2.6
	C40.9,218.6,40.5,217.7,40.5,216.7z M45.2,212.4c-0.9,0.6-1.5,1.4-1.6,2.3c-0.1,0.9,0.1,1.8,0.6,2.6c0.4,0.6,1,1.1,1.7,1.5
	c0.7,0.3,1.5,0.6,2.3,0.6c0.9,0.1,1.7-0.2,2.6-0.6c0.3-0.2,0.6-0.3,0.9-0.5c1-0.6,1.5-1.4,1.7-2.3c0.2-0.9,0-1.8-0.6-2.6
	c-0.4-0.6-1-1.1-1.7-1.5c-0.7-0.4-1.5-0.6-2.3-0.6c-0.9,0-1.7,0.2-2.6,0.6C45.7,212.1,45.4,212.3,45.2,212.4z"/>
<path class="st0" d="M37.8,185.4l2.9,7.4l4.2,0.5l1.5,3.9l-22.5-2.8l-1.7-4.3l17.3-10.6l1.5,3.9L37.8,185.4z M35.1,187l-7.4,4.3
	l9.5,1.1L35.1,187z"/>
<path class="st0" d="M21.5,168.9c0.3-0.9,0.7-1.6,1.4-2.1l-2.3,0.1l-0.8-3.9l16.2-0.5c1.5,0,2.9,0.2,4.2,0.8
	c1.3,0.6,2.4,1.4,3.3,2.5c0.9,1.1,1.5,2.5,1.9,4.2c0.5,2.2,0.3,4-0.5,5.4c-0.8,1.4-2.1,2.3-3.9,2.5l-0.8-3.9
	c0.7-0.2,1.2-0.7,1.5-1.4c0.3-0.7,0.3-1.5,0.2-2.5c-0.2-1.1-0.8-2.1-1.6-2.7c-0.9-0.7-2-1-3.4-1l-2.5,0.1c0.9,0.5,1.6,1.1,2.3,2
	c0.7,0.9,1.1,1.9,1.4,3c0.2,1.1,0.2,2.2-0.2,3.2c-0.3,1-0.9,1.8-1.8,2.5c-0.9,0.7-1.9,1.1-3.1,1.4c-0.6,0.1-1.2,0.2-1.8,0.2
	c-1.6,0.1-3.1-0.2-4.5-0.8c-1.4-0.6-2.5-1.4-3.4-2.5c-0.9-1.1-1.5-2.2-1.8-3.6C21.2,170.9,21.2,169.8,21.5,168.9z M27.6,166.8
	c-1.1,0.2-1.9,0.7-2.4,1.5c-0.5,0.7-0.6,1.7-0.5,2.6c0.2,0.7,0.5,1.4,1,2c0.5,0.6,1.1,1.1,1.9,1.5c0.8,0.3,1.7,0.5,2.6,0.5
	c0.3,0,0.7-0.1,1-0.1c1.1-0.2,1.9-0.7,2.5-1.5c0.5-0.7,0.7-1.7,0.5-2.6c-0.2-0.7-0.5-1.4-1-2c-0.5-0.6-1.1-1.1-1.9-1.5
	c-0.8-0.3-1.7-0.5-2.6-0.5C28.2,166.7,27.8,166.8,27.6,166.8z"/>
<path class="st0" d="M20.3,145.5c1.1-1.3,2.5-1.9,4.4-1.9c0.6,0,1.1,0,1.7,0.1c0.6,0.1,1.1,0.2,1.5,0.3l0.5,11.6c0.1,0,0.3,0,0.6,0
	c1-0.1,1.8-0.3,2.3-1c0.5-0.6,0.8-1.4,0.7-2.3c-0.1-0.8-0.2-1.5-0.6-2.1c-0.4-0.6-0.9-1-1.4-1.4l-0.2-4.3c1.5,0.6,2.9,1.7,3.9,3.1
	c1,1.4,1.6,3.1,1.7,5c0.1,2-0.4,3.7-1.5,4.9c-1.1,1.3-2.6,1.9-4.6,2.1c-0.6,0-1.2,0-1.8-0.1c-1.7-0.2-3.1-0.7-4.4-1.5
	c-1.3-0.9-2.3-1.9-3-3.1c-0.7-1.3-1.1-2.7-1.2-4.3C18.8,148.3,19.3,146.7,20.3,145.5z M24.9,147.6c-0.9,0.1-1.6,0.3-2.1,1
	c-0.5,0.6-0.7,1.4-0.7,2.3c0.1,1,0.4,1.9,1.1,2.7c0.7,0.7,1.5,1.3,2.7,1.5l-0.3-7.6C25.3,147.6,25.1,147.5,24.9,147.6z"/>
<path class="st0" d="M21.6,125.5c1-0.9,2.3-1.2,3.9-1c0.6,0.1,1.1,0.2,1.7,0.3l9,2.6l-0.4,3.9l-8.5-2.5c-0.3-0.1-0.7-0.2-1-0.2
	c-1-0.1-1.7,0.1-2.2,0.5c-0.6,0.5-0.9,1.1-1,2.1c-0.1,1.1,0.1,2,0.7,2.8c0.6,0.8,1.4,1.4,2.6,1.8l8.8,2.5l-0.5,4L19.2,138l0.5-4
	l1.9,0.6c-0.6-0.7-1-1.5-1.3-2.5c-0.3-0.9-0.4-1.9-0.3-2.9C20,127.6,20.6,126.4,21.6,125.5z"/>
<path class="st0" d="M25.4,119.2c-1-1.1-1.6-2.5-1.9-3.9c-0.3-1.4-0.3-2.9,0.1-4.3c0.5-1.9,1.4-3.3,2.6-4.1c1.2-0.9,2.7-1.1,4.5-0.7
	l-1.1,4.2c-0.7-0.1-1.3,0.1-1.8,0.5c-0.5,0.3-0.9,0.9-1,1.7c-0.3,1.1-0.1,2.2,0.5,3.1c0.6,1,1.6,1.8,3,2.5c0.5,0.2,0.9,0.4,1.3,0.5
	c1,0.3,1.9,0.2,2.6-0.1c0.7-0.3,1.1-1,1.4-1.9c0.4-1.5,0-2.9-1.2-4l1.1-4.2c1.5,1.1,2.5,2.6,3.1,4.3c0.6,1.7,0.6,3.5,0.2,5.3
	c-0.5,1.9-1.5,3.3-2.9,4.2c-1.4,0.9-3,1-4.9,0.6c-0.6-0.2-1.1-0.3-1.8-0.6C27.6,121.3,26.3,120.3,25.4,119.2z"/>
<path class="st0" d="M28.4,97.2l11,2.4l-7.8-10l1.7-3.9l16,22l-1.7,3.9l-5.3-7.5l-15.7-2.7L28.4,97.2z"/>
<path class="st0" d="M51.2,86.3c-0.5,0.1-1,0.1-1.5-0.3c-0.6-0.4-1-1-1.2-1.8c-0.1-0.8,0-1.5,0.4-2.2c0.3-0.5,0.7-0.9,1.3-1
	c0.5-0.1,1,0,1.5,0.3c0.6,0.4,1,1,1.2,1.8c0.2,0.8,0,1.5-0.4,2.2C52.1,85.8,51.7,86.2,51.2,86.3z"/>
</svg>
