<?xml version="1.0" encoding="utf-8"?>
<!-- Generator: Adobe Illustrator 26.0.1, SVG Export Plug-In . SVG Version: 6.00 Build 0)  -->
<svg version="1.1" id="Layer_1" xmlns="http://www.w3.org/2000/svg" xmlns:xlink="http://www.w3.org/1999/xlink" x="0px" y="0px"
	 viewBox="0 0 1200 1200" style="enable-background:new 0 0 1200 1200;" xml:space="preserve">
<style type="text/css">
	.st0{fill:#00A6FE;}
	.st1{fill:#0074FF;}
	.st2{fill:#FC0300;}
	.st3{fill:#FE7700;}
	.st4{fill:#FFCF04;}
	.st5{fill:#06CAFC;}
</style>
<rect x="524.3" y="403.1" class="st0" width="41" height="41"/>
<rect x="575.3" y="404.1" class="st1" width="41" height="41"/>
<rect x="623.3" y="403.1" class="st2" width="41" height="41"/>
<rect x="672.3" y="402.1" class="st2" width="41" height="41"/>
<rect x="720.3" y="402.1" class="st2" width="41" height="41"/>
<rect x="476.3" y="454.1" class="st0" width="41" height="41"/>
<rect x="527.3" y="456.1" class="st1" width="41" height="41"/>
<rect x="577.3" y="456.1" class="st2" width="41" height="41"/>
<rect x="480.3" y="507.1" class="st1" width="41" height="41"/>
<rect x="533.3" y="509.1" class="st2" width="41" height="41"/>
<rect x="533.3" y="557.1" class="st2" width="41" height="41"/>
<rect x="534.3" y="653.1" class="st2" width="41" height="41"/>
<rect x="630.3" y="509.1" class="st2" width="41" height="41"/>
<rect x="630.3" y="557.1" class="st2" width="41" height="41"/>
<rect x="678.3" y="605.1" class="st2" width="41" height="41"/>
<rect x="729.3" y="604.1" class="st3" width="41" height="41"/>
<path class="st3" d="M681.3,652.1h41v41h-41V652.1z"/>
<rect x="732.3" y="652.1" class="st4" width="41" height="41"/>
<rect x="630.3" y="653.1" class="st2" width="41" height="41"/>
<rect x="581.3" y="509.1" class="st2" width="41" height="41"/>
<rect x="581.3" y="557.1" class="st2" width="41" height="41"/>
<rect x="582.3" y="653.1" class="st2" width="41" height="41"/>
<rect x="678.3" y="509.1" class="st2" width="41" height="41"/>
<rect x="678.3" y="557.1" class="st2" width="41" height="41"/>
<rect x="726.3" y="509.1" class="st2" width="41" height="41"/>
<rect x="726.3" y="557.1" class="st2" width="41" height="41"/>
<rect x="481.3" y="557.1" class="st2" width="41" height="41"/>
<rect x="485.3" y="653.1" class="st2" width="41" height="41"/>
<rect x="475.3" y="404.1" class="st5" width="41" height="41"/>
</svg>
