<?xml version="1.0" encoding="utf-8"?>
<!-- Generator: Adobe Illustrator 26.0.1, SVG Export Plug-In . SVG Version: 6.00 Build 0)  -->
<svg version="1.1" id="Layer_1" xmlns="http://www.w3.org/2000/svg" xmlns:xlink="http://www.w3.org/1999/xlink" x="0px" y="0px"
	 viewBox="0 0 610 110" style="enable-background:new 0 0 610 110;" xml:space="preserve">
<style type="text/css">
	.st0{fill:#00A6FE;}
	.st1{fill:#0074FF;}
	.st2{fill:#FC0300;}
	.st3{fill:#FE7700;}
	.st4{fill:#FFCF04;}
	.st5{fill:#06CAFC;}
	.st6{fill:#FFFFFF;}
</style>
<rect x="25.2" y="13.7" class="st0" width="12" height="12"/>
<rect x="42" y="16.3" class="st1" width="12" height="12"/>
<rect x="57.8" y="17.8" class="st2" width="12" height="12"/>
<rect x="72.2" y="17.8" class="st2" width="12" height="12"/>
<rect x="86.3" y="17.8" class="st2" width="12" height="12"/>
<rect x="11.1" y="27.8" class="st0" width="12" height="12"/>
<rect x="27.9" y="30.4" class="st1" width="12" height="12"/>
<rect x="43.7" y="31.9" class="st2" width="12" height="12"/>
<rect x="13.5" y="44.5" class="st1" width="12" height="12"/>
<rect x="29.6" y="46" class="st2" width="12" height="12"/>
<rect x="29.6" y="60.1" class="st2" width="12" height="12"/>
<rect x="29.9" y="88.3" class="st2" width="12" height="12"/>
<rect x="58.1" y="46" class="st2" width="12" height="12"/>
<rect x="58.1" y="60.1" class="st2" width="12" height="12"/>
<rect x="72.2" y="74.2" class="st2" width="12" height="12"/>
<rect x="87.2" y="75.1" class="st3" width="12" height="12"/>
<path class="st3" d="M73.1,89.5h12v12h-12V89.5z"/>
<rect x="89" y="91" class="st4" width="12" height="12"/>
<rect x="58.1" y="88.3" class="st2" width="12" height="12"/>
<rect x="43.7" y="46" class="st2" width="12" height="12"/>
<rect x="43.7" y="60.1" class="st2" width="12" height="12"/>
<rect x="44" y="88.3" class="st2" width="12" height="12"/>
<rect x="72.2" y="46" class="st2" width="12" height="12"/>
<rect x="72.2" y="60.1" class="st2" width="12" height="12"/>
<rect x="86.3" y="46" class="st2" width="12" height="12"/>
<rect x="86.3" y="60.1" class="st2" width="12" height="12"/>
<rect x="15.5" y="60.1" class="st2" width="12" height="12"/>
<rect x="15.5" y="88.3" class="st2" width="12" height="12"/>
<rect x="7" y="9.6" class="st5" width="12" height="12"/>
<path class="st6" d="M137.6,44.6c-1.9-1.1-3.9-1.9-6-2.7c-1.8-0.7-3.8-1-5.7-1c-1.8-0.1-3.6,0.4-5.2,1.3c-1.3,0.9-2,2.4-1.9,4
	c0,1.2,0.5,2.4,1.4,3.2c1.1,1,2.4,1.9,3.7,2.5c1.5,0.7,3.1,1.4,4.7,2c1.5,0.6,3,1.2,4.4,2c1.5,0.8,2.8,1.7,4,2.9
	c1.2,1.2,2.2,2.7,2.8,4.3c0.7,2,1.1,4.1,1,6.3c0,2.6-0.7,5.1-2,7.3c-1.5,2.3-3.5,4.2-6,5.4c-3,1.5-6.3,2.2-9.7,2.1c-2,0-4-0.2-6-0.6
	c-4.2-0.8-8.1-2.5-11.7-4.9l4.5-7.9c1.2,0.9,2.6,1.7,3.9,2.3c1.4,0.7,2.8,1.2,4.3,1.6c1.3,0.4,2.6,0.5,4,0.6c1.2,0,2.5-0.2,3.7-0.5
	c1.2-0.3,2.2-0.9,3.1-1.8c0.9-1,1.3-2.2,1.2-3.5c0-1-0.3-2-1-2.8c-0.8-0.9-1.7-1.7-2.7-2.3c-1.2-0.7-2.4-1.3-3.7-1.8
	c-1.6-0.6-3.2-1.3-4.9-2.1c-1.7-0.8-3.3-1.8-4.7-2.9c-3.3-2.5-5.1-6.4-5-10.5c-0.1-2.7,0.6-5.4,2-7.8c1.4-2.2,3.3-4,5.6-5.2
	c2.6-1.3,5.5-2.1,8.4-2.1c3.4-0.1,6.9,0.4,10.1,1.5c2.5,0.9,4.8,2.1,7,3.5L137.6,44.6z"/>
<path class="st6" d="M150.9,32.1H161v51.5h-10.1V32.1z"/>
<path class="st6" d="M220.4,85.7l-39-35.3l3,1.7l0.2,31.5h-10.3V30.1h0.4l38.2,35.1l-2.2-1l-0.2-32.1h10.2v53.6H220.4z"/>
<path class="st6" d="M234,32.1h32.2v9.8h-22v11.7h19.1v9.8h-19.1v20.2H234V32.1z"/>
<path class="st6" d="M289.3,67.6l-19-35.5h12.6l13.3,26.7l-3,0.2l13.1-26.9h12.5l-19.3,35.5v16h-10.1V67.6z"/>
<path class="st6" d="M372.6,85.7l-39-35.3l3,1.7l0.2,31.5h-10.3V30.1h0.4l38.2,35.1l-2.2-1l-0.2-32.1h10.2v53.6H372.6z"/>
<path class="st6" d="M380.4,83.6l23.2-53.5h0.6l23.2,53.5h-11.8L400.8,46l7.3-5l-17.8,42.6H380.4z M396.2,65h15.5l3.6,8.5h-22.2
	L396.2,65z"/>
<path class="st6" d="M434.9,83.6V30h0.1l28.6,40.6l-4.3-1L487.7,30h0.1v53.6h-10.1V52.9l0.6,5.2l-17.4,24.8h-0.1l-17.9-24.8l1.8-4.8
	v30.3H434.9z"/>
<path class="st6" d="M501.2,32.1h10.1v51.5h-10.1V32.1z"/>
<path class="st6" d="M563.2,79.3c-1,0.7-2,1.4-3.1,1.9c-1.8,0.9-3.6,1.6-5.6,2.1c-2.4,0.6-4.8,0.9-7.3,0.8c-3.7,0-7.4-0.8-10.9-2.2
	c-3.1-1.3-5.8-3.2-8.1-5.6c-2.2-2.4-3.9-5.2-5.1-8.2c-1.2-3.2-1.8-6.5-1.8-9.9c0-3.7,0.6-7.3,1.8-10.8c1.1-3.1,2.8-6,5.1-8.5
	c2.2-2.4,4.9-4.3,8-5.5c3.2-1.4,6.7-2,10.2-2c3.1-0.1,6.2,0.4,9.2,1.4c2.3,0.7,4.5,1.8,6.5,3l-4,9.6c-1.5-1.1-3-2-4.7-2.8
	c-2.1-1-4.4-1.5-6.7-1.4c-1.9,0-3.9,0.4-5.6,1.2c-1.8,0.8-3.4,2-4.8,3.5c-1.4,1.5-2.5,3.3-3.2,5.2c-0.8,2.1-1.2,4.3-1.2,6.5
	c0,2.3,0.3,4.6,1.1,6.8c0.7,2,1.7,3.8,3.1,5.3c1.4,1.5,3,2.6,4.9,3.4c2,0.8,4.2,1.2,6.4,1.2c2.4,0.1,4.8-0.4,7.1-1.3
	c1.6-0.7,3.2-1.6,4.5-2.8L563.2,79.3z"/>
<path class="st6" d="M572.2,71.4c1.9,1.1,3.9,1.9,6,2.7c1.8,0.6,3.8,1,5.7,1c1.8,0.1,3.6-0.4,5.2-1.3c1.3-0.9,2-2.4,1.9-4
	c0-1.2-0.5-2.4-1.4-3.2c-1.1-1-2.4-1.9-3.7-2.5c-1.5-0.7-3.1-1.4-4.7-2c-1.5-0.6-3-1.2-4.4-2c-1.5-0.8-2.8-1.7-4-2.9
	c-1.2-1.2-2.1-2.7-2.7-4.3c-0.8-2-1.1-4.1-1-6.3c0-2.6,0.7-5.1,2-7.3c1.5-2.3,3.5-4.2,6-5.4c3-1.5,6.3-2.2,9.7-2.1c2,0,4,0.2,6,0.6
	c2.1,0.4,4.1,1,6,1.8c2,0.8,3.9,1.9,5.7,3.1l-4.5,7.9c-1.3-0.9-2.6-1.7-4-2.3c-1.4-0.7-2.8-1.2-4.3-1.6c-1.3-0.4-2.6-0.5-4-0.6
	c-1.2,0-2.5,0.2-3.7,0.5c-1.2,0.3-2.2,0.9-3.1,1.8c-0.9,1-1.3,2.2-1.2,3.5c0,1,0.4,2,1,2.8c0.8,0.9,1.7,1.7,2.7,2.3
	c1.2,0.7,2.4,1.3,3.8,1.8c1.6,0.6,3.2,1.3,4.9,2.1c1.7,0.8,3.3,1.8,4.7,2.9c3.2,2.5,5.1,6.4,4.9,10.5c0.1,2.7-0.6,5.4-2,7.8
	c-1.4,2.2-3.3,4-5.6,5.2c-2.6,1.3-5.5,2.1-8.4,2.1c-3.4,0.1-6.9-0.4-10.1-1.5c-2.5-0.9-4.8-2.1-7-3.5L572.2,71.4z"/>
</svg>
